<svg version="1" xmlns="http://www.w3.org/2000/svg" width="800" height="800" viewBox="0 0 600.000000 600.000000"><path d="M0 25.6v25.6l4-.7c2.2-.4 5.5-.2 7.4.5 1.9.6 7 1.2 11.4 1.3 6.2.2 8.5.6 10.1 2.1 1.7 1.5 2.3 1.7 3.6.6 1.2-1 3-1 9.3 0 4.2.7 8.5 1.7 9.5 2.2 1.7.9 15.1 2.1 23.5 2.2 4.5.1 5.3.9 2.3 2.6-2.3 1.2-29.3.4-31.9-.9-3-1.5-14-3.2-16.6-2.5-1.9.4-2.8.2-3.2-1-.7-1.8-5.8-1.4-12.7 1-3.5 1.2-3.8 1.2-5.3-1.1-1.9-2.9-5.5-3.3-7.6-.8C.1 61.2 0 63 0 115.4c0 49 .1 51.5 1.9 53.7 1.9 2.3 2 2.3 3.9.6 2.5-2.3 5.7-1.5 6.6 1.6l.6 2.2 1.9-2.5c1.4-1.7 1.6-2.7.8-3.2s-.6-.9.6-1.4c2-.7 5 1.3 4.1 2.8-.3.5.4 2.1 1.7 3.4 1.8 1.9 3 2.3 5 1.9 2.1-.5 3-.2 3.9 1.5 1 1.9 1.9 2 8.3 1.8 6.7-.3 7.2-.5 6.9-2.4-.2-1.2.3-2.4 1.1-2.7 1-.4 1.3.1 1 1.6-.5 3 .7 4.3 4.6 5.2 2.9.6 3.3.5 2.8-.9-.7-1.7.8-3.2 1.8-1.7.3.6 1.2.8 2 .5.8-.3 2-.2 2.7.2.7.5 2.5.7 4.1.5 2.1-.2 3.1.4 4.5 2.8 2.2 3.9 3.2 3.9 5.5 0 1.7-3.1 1.9-3.2 7.5-2.6 4.2.4 6.1 1.1 7.1 2.6 1.1 1.8 2.4 2.1 7.7 2.1 7.6 0 7.8-.3 7.6-14.2-.1-11.6 1.8-23.6 5.1-31.5 12.3-29.2 18.2-39.6 31.9-55.6 6.9-8.1 7.7-9.3 6.2-10.4-1-.7-1.4-1.9-1-2.9.5-1.3 1.4-1.5 4.1-1.1 3.2.5 4.2 0 12.3-7.1 4.9-4.2 10.7-9.1 13.1-10.7 7.4-5.2 10.1-7.7 9.5-8.6-.3-.5.2-.9 1.1-.9.9 0 2.9-.9 4.4-1.9 1.4-1 4.5-2.4 6.8-3 2.3-.6 4.5-1.6 4.8-2.1 1.5-2.4 9.3-5.2 16.9-6 4.4-.5 12.2-1.4 17.1-2 5-.5 15.9-1.1 24.3-1.3 11.4-.2 15.5-.6 16.1-1.5.7-1.1.9-1.1 1.4.1.4 1 3.6 1.8 10.8 2.7 5.7.7 11.7 1.9 13.4 2.6 1.7.7 6 1.6 9.5 2 3.6.3 7.6 1.3 9 2 3.5 1.9 14.5 5.4 16.9 5.4 1.1 0 2.3.4 2.6 1 .3.5 1.6 1 2.9 1 1.2 0 2.6.4 3.1.8.6.5 4.8 2.3 9.5 4.1 13.4 5 21.5 9.3 21.4 11.3-.1 1 .5 1.8 1.3 1.8.9 0 1.1-.5.7-1.3-.5-.8-.2-.8.9.2.9.7 1.7 1.1 1.7.7 0-.3.9.3 2 1.4 1.1 1.1 3 2 4.3 2 2.1 0 6.3 2.8 10.9 7.2 1 1 2.7 1.8 3.9 1.8 1.2 0 2.3.8 2.6 1.9.3 1.1 1.6 2.2 2.9 2.5 1.3.4 2.4 1.1 2.4 1.7 0 .5 1.4 1.5 3 2.1 2 .7 3.5 2.2 4.5 4.4.8 1.9 2.5 3.9 3.9 4.5 1.4.7 2.3 1.6 2 2.1-.3.5-.2.8.3.7 2.1-.4 3.1.3 4.2 2.7.6 1.4.8 3 .5 3.6-.4.7-.2.8.4.4.8-.4 1.6.3 2.2 2 1 2.5-.3 8.3-3.4 15.5-.5 1.1-.1 1.8 1.2 2.1 1.7.5 1.9 1.1 1.2 4.6-.4 2.2-1.5 4.8-2.4 5.7-1.5 1.6-1.5 1.9-.1 3.4 2.2 2.5 1.9 3.3-1.2 2.7-2.3-.5-3-.2-4 1.9-1.1 2.4-1 2.6 1.8 3.2 2.4.4 2.9 1 2.9 3.4 0 3.7-.8 3.6-6.6-.2-5.5-3.8-6.8-2.9-5.9 4 .4 3.8.3 4.2-1.3 3.7-1.6-.6-1.6-.5.1.8.9.7 1.7 2 1.7 2.9 0 .8.6 1.7 1.4 2 1.6.6 2.6 6.1 1.4 7.9-.6 1-1 1-1.7 0-.6-1.1-1-1-1.5.3-.3.9-.6 2.7-.6 4.1 0 2.3-.1 2.3-2 .7-1.2-1.1-2-3-2-5 0-2.1-.5-3.3-1.4-3.3-1.3 0-2.6 2.6-4.1 7.7-.4 1.4-1.7 2.5-3.3 2.9-1.5.3-3.2.7-3.9.9-.6.2-2.6 3.3-4.4 7-2.2 4.5-3.7 6.5-4.8 6.3-.9-.2-1.6-1.1-1.6-2 0-2.6-1.4-3.3-2.1-1.2-.4 1-1.6 3-2.6 4.3-2.5 3.3-2.4 8.6.4 10.5 1.8 1.3 1.9 1.8.8 3.1-1.2 1.4-1.5 1.4-3.1-.1-1-.9-2-2.6-2.3-3.8-.2-1.1-.4.5-.3 3.7.2 5.9-.2 6.7-2.3 4.2-1.9-2.2-3.9-1.8-4.6 1-.4 1.8-1.3 2.5-3 2.5-1.4 0-2.7.7-3 1.5-.4.8-1.2 1.5-1.8 1.5-2 0-3.4 2-2.9 4.1.4 1.2 1.4 1.9 3 1.9 2 0 2.4.3 1.8 1.7-.5 1-1 3.2-1.3 5-.4 3-3.3 5-5.4 3.7-1.5-.9-.8-4.3 1.1-6.1 1.3-1.2 1.7-2.3 1.2-3.2-1.3-2.1-4.6-.9-4.9 1.9-.2 1.4-1 2.9-1.8 3.3-2.1 1.2-1.7 2.6 1.2 3.3 3.4.9 2.8 3.8-1 4.2l-2.9.4.7 7.1c.4 4 .8 8.8.9 10.7.2 2.8.6 3.6 2.5 3.8 1.8.3 2.2-.1 2.2-2.3 0-3 2.5-4.3 5.1-2.7 2.9 1.9 3.6 1.5 4.6-2.5l.9-3.7 2.3 3.9c1.3 2.2 2.1 4.9 1.8 6.2-.3 1.5.2 2.7 1.2 3.2 1.4.8 1.6 0 1.8-6 .1-3.8-.3-7.1-.8-7.4-1.4-.9-1.1-2.5.6-2.5.8 0 1.5.4 1.5 1 0 .5 1 1.8 2.2 3 1.6 1.4 2.4 1.7 2.9.8.6-.9 1.1-.9 2.2.1 1.2.9 1.7.9 2.3-.1 1-1.6 2.6 4.9 2.6 10.4 0 2.1.3 3.8.7 3.8.4 0 1.3 1.6 2 3.5.9 2.7 1.8 3.5 3.6 3.5 1.3 0 2.7.4 3 1 .3.5-.3 1-1.5 1s-1.8.5-1.5 1c1 1.6-.5 5-2.1 5-1.7 0-1.9 4.3-.2 7 1 1.5 1 2.2 0 3.2-.9.9-1.2.6-1.2-1.5 0-2.2-.4-2.7-2.5-2.7-1.4 0-2.8.6-3.1 1.4-.3.8-1.3 1.2-2.5.9-1.5-.4-2.2 0-2.6 1.6-.6 2.4-5.8 5.6-7.4 4.5-.6-.3-1.3.3-1.6 1.5-.7 2.9-3.3 2.7-3.3-.3 0-1.7-.7-2.6-2.6-3-1.5-.4-2.8-.5-3.1-.2-.3.2-1.9 3.4-3.8 7.1l-3.2 6.6-.8-3.3-.8-3.3-.7 4.5c-.4 2.5-.5 7.5-.2 11.2l.5 6.6-4.2 1.2c-2.3.6-4.5 1.9-4.8 2.8-1.3 3.4-6.4 10.2-7.8 10.2-.7 0-1.5 1-1.7 2.2-.2 1.9-.8 2.2-3 2-1.6-.2-2.8.1-2.8.7s.8 1 1.8.9c3.9-.3 5 .4 6.7 4.1 1.8 4 1.4 6.1-1 6.1-1.6 0-2.5 2.2-2.5 6.5 0 4.9-.9 6.5-3.6 6.5-1.3 0-2.4.6-2.4 1.3 0 .7 1.3 1.2 3.2 1.2 2.3 0 3.4.5 3.6 1.8.4 2.2-1.5 4.7-3.7 4.7-.9 0-2.2 1.2-2.8 2.7-1.6 3.3-1.6 4.3-.3 4.3.6 0 1-.7 1-1.5s.4-1.5.9-1.5 1.7-.7 2.5-1.6c1.5-1.4 1.6-1.2 1.8 2 0 2 .1 4.2.2 4.8.1.7-.5 1.2-1.3 1-1-.2-1.2.5-.8 2.5.4 2-.2 3.5-1.9 5.6-1.3 1.6-2.4 3.9-2.4 5.2 0 3-2.4 4.9-5.4 4.1-1.9-.5-2.8-.1-3.6 1.4-.6 1.1-1.7 2-2.5 2-1.8 0-2 1.7-.2 2.3 1.3.4 4-.8 6.9-3.2 1.5-1.2 1.8-1 2.3 1.5.4 1.6.9 3.6 1.1 4.5.6 2.3-1.8 3-4.1 1.3-1-.8-2.2-1.4-2.7-1.4-1.4 0-.9 3 .6 3.6 1 .4.5 1.5-2 4-1.9 1.9-3.9 3.4-4.3 3.4-.5 0-1.2.8-1.6 1.8-.5 1.4-.4 1.5.6.4.7-.6 2.2-1.2 3.3-1.2 1.1 0 2.7-.7 3.6-1.5 2.8-2.5 8.3.6 6.4 3.6-.7 1.2-3.4 1.1-3.4-.1 0-.6-.7-1-1.5-1-.9 0-1.6 1-1.6 2.7-.1 1.6-.2 3.6-.3 4.6-.1 1-.6 2.1-1.2 2.5-.6.4-1.9 3.2-2.9 6.3-1.5 4.9-2.3 5.9-5.5 7.3-4.9 2.1-5 2.1-5-1.9 0-2.7-.3-3.3-1.6-2.8-1.2.5-1.5 1.4-1 4.3.4 2.8.2 3.9-.9 4.4-.9.3-1.5 0-1.5-.9 0-2.1-1.9-2.8-3.5-1.5-1.9 1.6-2-.2-.2-3.1 1-1.7.9-2.3-1-3.9-2.8-2.2-2.8-2.8-.6-5.2 1.7-1.9 1.6-2-.4-3.6-1.2-.9-2.3-3.1-2.5-4.7-.2-2.2-.8-2.9-2-2.7-2.6.4-3.1-1.7-.8-3.6 1.1-.9 2.2-2.9 2.4-4.5.1-1.5 1.3-3.8 2.5-5.1 1.9-2.1 2.1-2.7 1.1-4.6-1.4-2.6.2-6.5 3.2-8.1 1-.6 1.6-1.4 1.3-2-.9-1.4-3.5-1.1-3.5.5 0 .7-1.4 1.6-3.1 2-1.9.4-2.9 1.1-2.6 1.8.2.7.1 2.2-.3 3.3-.4 1.1-.3 2.5.2 3.2 1.4 1.7-.8 5.3-3.2 5.3-1.1 0-2 .7-2 1.5s.9 1.5 2 1.5 2 .4 2 .9c0 1.5-3 2.1-5.1 1.1-2.2-1.2-2.3-1-.8 2.4.7 1.4.8 3.3.4 4.3-.5 1-.7 2.2-.6 2.7.1.5-.2 1.2-.7 1.5-.6.3-1.8 2.2-2.9 4.1-1.1 1.9-3 3.7-4.4 4-1.7.4-2.5 1.4-2.7 3.3-.2 1.9-.9 2.7-2.2 2.7-1.1 0-2 .8-2.2 2.2-.4 2.9-2.4 3.4-3.1.8-.5-2.1-3.7-2.9-3.7-.9 0 .7-1.3.9-3.8.4-3.5-.6-3.8-.4-4.9 2.6-.9 2.4-1 3.6-.2 4.6 2.1 2.4 4.7 1.5 6-2.2 1.6-4.3 2.5-4.4 3.4-.4.6 2.4.3 3.4-1.4 4.5-1.1.8-2.8 2.2-3.7 3.1-.9 1-2.6 1.7-3.8 1.8-1.5 0-2 .5-1.8 2 .2 1.1.9 2.3 1.4 2.6.6.4 1.3 2.7 1.5 5.3.3 2.5 1 4.6 1.5 4.6 1.3 0 .1 8.6-1.5 11.1-.7 1.1-1.9 1.9-2.7 1.9-2 0-4.2 3.7-3.6 5.8.8 2.3 6.3 5.4 7 3.9.3-.9.5-.9.5 0 .1 1.5-8.3 7-11.9 7.8-2 .4-2.7 1.1-2.3 2.1.3.8-.3 2.3-1.4 3.3-1.5 1.5-2.1 1.5-3.1.5-.7-.7-1.2-1.8-1.2-2.4 0-.5-.9-1-2-1-2.7 0-2.6 1.6.2 2.3 2 .6 2 .8.6 2.9-.8 1.3-2.5 2.5-3.8 2.6-1.2.2-2.5 1.2-2.7 2.3-.4 1.3-1.1 1.8-2.3 1.4-1-.3-2.2 0-2.7.7-.4.7-2.3 2.3-4 3.6-2.8 1.9-3.6 2-5.3 1-1.1-.7-2-1.6-2-1.9 0-.4-1-.9-2.2-1.2-2.9-.8-7.2 1.6-9.7 5.5-1.1 1.8-2.1 2.7-2.1 1.9 0-2.2-4.3-8.1-5.8-8.1-.7 0-2.7.7-4.3 1.6-2.8 1.4-3.5 1.4-9.2-.5-5.6-1.9-6.2-2-7.9-.4-1 .9-1.8 1.1-1.8.5 0-1.4-3.7-2.5-7.7-2.4-2.1.1-3.3-.3-3.3-1.2 0-2 1.1-2.6 3.1-1.6 2.6 1.5 3.5-.7 1.3-3.2-1.1-1.1-2.7-2.4-3.7-3-1.6-.8-1.8-.7-1.2 1.1.4 1.4 0 2.3-1.6 3.1-1.3.8-1.8 1.5-1.2 2.1 1 1 .5 5.9-.6 5.9-.3 0-2.8-1.1-5.5-2.5-5.7-2.9-7.2-3.1-8.3-1.1-.4.8-2.5 1.7-4.6 2.1-3.4.7-3.9.5-4.4-1.4-.5-2-3.3-3-3.3-1.2 0 1.5-3 2.2-5 1.1s-2.8-8.4-3.2-28.5c-.1-7.9-.7-12.5-2.1-16.3-1.1-3.3-1.9-8.1-1.9-12.3-.1-6.3-.3-7.2-2.4-8.6-2-1.3-2.4-2.3-2.2-5.7.3-3.3-.1-4.3-1.8-5-1.9-.9-2.2-2.3-3.3-16.5-.7-8.6-1.4-17.4-1.6-19.7-.5-5.8-1.6-11.6-2.7-13.6-.5-1.1-.5-2.5.2-3.7 1.1-2.2.2-11.3-1.1-10.5-.5.3-.6-.2-.3-1.1.9-2.2-.5-7.3-1.5-5.6-1.2 1.8-1.8-.1-2.6-8.5-.4-3.8-1.1-7.4-1.5-7.9-.5-.6-1-2.4-1.3-4-.3-1.7-.4-.1-.3 3.4.1 5.6-.2 6.6-2.2 7.9-2.9 1.9-2.8 3 .5 4.3 5.5 2.1.6 3-16.5 3-10.1-.1-17.4.3-17.7.9-.3.6-2 1-3.6 1-2.3 0-2.9-.4-2.7-1.8.2-1.1-.4-1.8-1.9-2-1.3-.2-2.3-.8-2.3-1.3s-1.2-.9-2.7-.8l-2.8.1 2.8 1.1c5 2 2.8 2.7-8.3 2.7-9 0-11.5.3-14.5 2s-4.2 1.8-8.6 1c-2.9-.6-5.4-1-5.6-1-.3 0-.3-.6 0-1.3.3-.7-.4-1.9-1.6-2.7-1.6-1-2.2-1-2.5-.1-.2.7-1.5 1.6-2.8 2.1-2 .8-2.4 1.6-2.4 5.5 0 4.2.2 4.5 2.6 4.5 1.4 0 2.3.4 1.9 1-.3.5-1.5 1-2.6 1-1.8 0-1.9 1-1.9 34.9v35l2.3.4 2.2.4-2.2.8c-2.2.7-2.3 1.2-2.3 12.6V468h3.5c2 0 5.5-.9 7.7-2 2.3-1.1 5.2-2 6.4-2 1.2 0 3.8-.7 5.7-1.5 2-.8 5.2-1.5 7.2-1.5 2.1 0 3.8-.6 4.1-1.4.9-2.3 5.1-2.7 11-1 5.2 1.5 5.5 1.7 4.9 4.2-1.4 5.7-9.5 7.9-18 4.8-1.7-.6-1.7-.5.3 1 1.2.9 2.2 2.3 2.2 3 0 1 1.5 1.4 5.5 1.4 3.3 0 5.5-.4 5.5-1.1 0-1.4 7.6-8.9 9-8.9.5 0 1-.5 1-1 0-.6.8-1 1.7-1 .9 0 2.6-.9 3.7-1.9 1.5-1.4 3.9-2.1 8.1-2.3 3.3-.2 7.6-1.1 9.5-2 1.9-1 4.1-1.8 4.9-1.8.8 0 2.2-.6 3-1.3 3.3-2.7 9.1-3.9 15.2-3.2 3.2.4 5.9 1.1 5.9 1.7 0 .5-1.2.7-2.9.3-2.4-.5-3.2-.2-4.1 1.5-.9 1.7-1.4 1.9-2.6.9-.8-.6-1.7-.9-2-.6-1 .9.5 3.9 1.5 3.3.5-.3 1.1.1 1.5.9.3.8 1.5 1.5 2.6 1.5 1.5 0 2 .5 1.8 1.7-.4 2.3-3.2 2.8-6.9 1.3-2.4-1-2.8-1.7-2.3-3.6.6-2.4-.5-3-4.6-2.4-2 .3-2.3.6-2.5 3.3-.1 1.7-.9 2.3-3.3 2.5-1.8.2-3.2.5-3.2.8 0 1.4 3.8 4.4 5.7 4.4 1.3 0 2.3.5 2.3 1.2 0 .6.7.4 1.8-.5 1-1 2.2-1.4 2.5-1 1.1 1 .8 3.3-.4 3.3-.6 0-2.2.9-3.6 2-1.9 1.5-3.5 1.8-7.6 1.5-3.7-.4-5.5-.1-6.8 1.1-1 .9-2.2 1.3-2.7 1-.5-.3-1.7 0-2.7.8-1.5 1-1.6 1.6-.6 3.4.7 1.3 1 2.6.7 3-.7 1.2-8.4 1.4-9.1.2-.3-.5-1-1-1.5-1-1.5 0-4 3.1-4 4.9 0 1.7.8 1.8 8.2 1.4 4.5-.2 8.9-.8 9.9-1.4 1-.5 3.3-.9 5.2-.9 2.6 0 3.7-.6 4.7-2.5 1.3-2.4 3-3.2 4.3-1.9 1.9 1.9-4.7 6.4-9.3 6.4-1 0-2.3.7-3 1.5-.8 1-2.7 1.4-5.4 1.3-3.6-.3-4.1 0-4.4 1.9-.4 2.9-3.8 3.9-6.1 1.9-1-.9-2.9-1.6-4.4-1.6-1.4 0-2.9-.5-3.2-1-.7-1.1-6.8-1.4-7.9-.3-1.6 1.6-7.8 1-8.9-.9-.7-1-1.5-1.8-1.8-1.8-1.3 0-1.8 3.1-.9 5.4.8 2.2.6 2.4-2.5 2.4-1.9 0-4.4.7-5.7 1.6-2.9 2.1-4.4 2-6.7-.3-1.9-1.9-1.9-1.9-2.3 1.1-.4 2.5 0 3.1 2.6 4.2 1.7.7 5.3 1.4 8 1.5 5.4.1 6.1.5 6.1 2.8 0 .9.6 1.8 1.2 2 1.6.6 1.7-3.3.2-4.3-.8-.5-.6-1 .5-1.6 2-1.1 3.9-.1 3.2 1.8-.4.9.3 1.8 1.7 2.4 1.6.6 1.8.9.5.9-.9.1-2.1.8-2.6 1.7-.5.9-2.1 1.6-3.6 1.6-1.9 0-2.6.6-2.6 1.9 0 3-3.2 2.3-8.4-1.7-3.8-2.8-5.3-3.5-7.4-3-1.5.4-3.4.7-4.2.8-.8 0-1.9.4-2.5.8-.5.4-2.5 1.1-4.2 1.5-2.8.6-3.3 1.1-3.3 3.6 0 2.1.4 2.8 1.8 2.7 2.6-.2 8.2 1.3 8.2 2.3 0 .5 1.3.9 2.9.9 4.2 0 4.8 1.8 1.2 3.1-3.2 1.1-4.5 4.9-1.6 4.9.8 0 1.5.9 1.5 2 0 2.4-4.5 3.8-7.2 2.1-1-.6-2.9-.9-4.3-.5-2.4.6-2.5 1-2.5 7.4v6.9h6.5c3.6 0 7.4.2 8.4.6 1.1.3 3.7-.1 5.8-1 2.1-.9 4.9-1.5 6.3-1.3 1.7.1 3.6-.7 5.5-2.5 3.5-3.2 4.5-3.4 4.5-.8 0 2.8 1.7 3.5 4.2 1.7 2.6-1.8 6.8-2.1 6.8-.5 0 .5.4.7 1 .4 2.1-1.3.8-3.3-2.5-3.9-1.9-.4-3.5-1.3-3.5-2 0-1.7 3.1-4.3 5-4.3.8-.1 2.2-.4 3.1-.7 1.1-.5 2.4 0 3.7 1.5 1.2 1.2 2.7 1.9 3.6 1.6 1.4-.6 1.4-1-.2-3.7-.9-1.6-2.1-3-2.6-3-1.8 0-10.6-6.4-10.6-7.8 0-.9-.6-1.2-1.5-.8-.9.3-1.8-.1-2.2-1-.8-2.1.4-2.9 2.2-1.4 1.2 1 1.7.8 2.6-1.6.9-2.1 1.3-2.5 1.6-1.2.2.9 1.5 1.9 2.9 2.2 1.3.4 2.4 1.4 2.4 2.4.1 2.6 2.3 5 5.3 5.7 1.5.4 3.1 1.3 3.5 2 .4.8 1.9 1.6 3.3 2 2.1.5 2.7.2 3.1-1.2.4-1.3 2.4-2.5 6.2-3.7 3.1-1 5.6-2.4 5.6-3.1 0-2 6.6-3.6 8.2-1.9 2.2 2.1-5.2 9.5-10 10-1.4.1-2.9 1-3.4 1.8-.5.9-1.8 1.6-2.9 1.6-1.1 0-2.2.7-2.5 1.5-.4.8-1.5 1.5-2.6 1.5-1.7 0-1.6.4 1.1 3.1 1.7 1.7 3.1 4.1 3.1 5.4 0 1.3.7 2.8 1.7 3.3 2.2 1.3 1.2 3.3-2.6 5.5-2.7 1.6-3.1 1.6-3.1.3 0-.9-.4-1.6-1-1.6-.5 0-1 .7-1 1.5 0 .9-2.4 2.6-5.6 4.1-4.3 1.9-6.5 2.4-9.4 1.9-3.9-.7-6.6 1-3.6 2.1 2.6 1 2 3.7-.6 3-6.7-1.9-7.4-1.8-9.2.9-.9 1.4-1.6 3.7-1.4 5.1.2 1.7-.7 3.3-3.7 5.9l-4 3.5 2.3 1.9c1.2 1.1 2.2 2.4 2.2 3 0 1.3.6 1.4 4.8.1 2.9-.8 3.3-.7 2.8.6-.3.9-.6 1.8-.6 2 0 .2-1.1.4-2.5.4-3 0-3.3 2-.5 2.7 2.2.6 2.8 4.3.6 4.3-.7 0-1.9-.7-2.6-1.5-1.5-1.8-3.3-2-2.8-.3.3.7 1 1.3 1.6 1.3.7 0 1.2.3 1.2.7v1.8c0 .5-.9 1-2 1s-2-.7-2-1.5c0-1.2-1.4-1.5-6.3-1.5-3.5 0-6.8-.5-7.5-1.2-.6-.6-2.8-1.2-4.9-1.4-2.1-.2-4.2-.3-4.8-.4-.5 0 0-.9 1.2-1.9l2.3-1.9-5-.4-5-.3V600h12c7.3 0 12.9-.5 14.6-1.2 2.2-1 2.8-1 3.2 0 .2.6 1.7 1.2 3.2 1.2 3 0 10-3.6 10-5.1 0-1.9 3-.8 5 1.9l2.1 2.9 13.5.2c8.7.1 13.4-.2 13.4-.9 0-.5 1.2-1 2.8-1 1.5 0 3.4-.4 4.2-.9 1-.7 1.8-.4 2.8 1 1.7 2.5 10.5 2.9 9.6.4-.7-1.8.7-2 2.4-.3 2 2 2.6-1.9.8-4.7-2.1-3.2.1-3.5 3-.4 6.3 6.7 6.6 6.9 11.5 6.9 3.5 0 4.9-.4 4.9-1.4 0-.9.8-1.2 2.5-.8 1.7.3 3.6-.4 6-2.2l3.5-2.7v3.5c0 3.2.3 3.6 2.5 3.6 1.4 0 3.4-.6 4.5-1.2 1.6-1 2.4-1 4 0 2.6 1.6 6.1 1.5 12.7-.4 5.1-1.5 5.3-1.7 3.9-3.3-.9-1-1.6-2.5-1.6-3.4 0-2.1 3.3-2.2 5-.2.9 1.1 1.6 1.3 2.3.6.7-.7.3-1.9-1.4-3.7l-2.4-2.6 3.5.4 3.5.3.3 6.7.3 6.8h181.2l2.8-3c1.6-1.6 2.9-3.5 2.9-4 0-.6 2.2-3.3 5-6.1 2.7-2.7 5-5.6 5-6.4 0-.7 1.6-2.3 3.5-3.5 1.9-1.2 3.5-2.6 3.5-3.1s2.1-3 4.6-5.6c2.5-2.7 5.9-7.3 7.7-10.3 1.7-3 3.5-5.7 4-5.9 1.2-.4 9.3-13.2 10.1-15.9.4-1.2 1.1-2.2 1.6-2.2 1.2 0 6.8-16 8.6-24.8.9-4.2 2.1-9.1 2.8-10.7.7-1.7 1.8-4.2 2.4-5.7.7-1.6 1.7-2.8 2.3-2.8.7 0 .9-1.6.5-4.8-.5-3.8-.2-5.2 1.4-7.2l2-2.5v2.8c0 1.6.9 4 2 5.4 1.1 1.4 2 4 2 5.7l-.1 3.1-1.4-2.5c-1-1.8-1.4-2-1.5-.8 0 2-3.2 7.8-4.2 7.8-.5 0-.8.8-.8 1.7 0 1.3.3 1.4 1.2.5 1.9-1.9 2.8-1.4 2.8 1.8 0 1.6.5 3 1.1 3 .5 0 .7.5.3 1.1-.4.8-.9.7-1.5-.2-.4-.7-1.1-1-1.4-.7-.4.4 0 1.7.9 3 1.8 2.5 2.1 7.5.5 8-1.1.4-1.1 1.1-.8 18 .2 8.2.6 10.8 1.6 10.8 1.4 0 1.8 2.6.5 3.4-1.4.9-1.3 10.6.2 11.2 1 .4 1.2 1.4.7 3.7-.4 1.8-.6 9.5-.5 17.2.2 8-.2 14.5-.7 15.1-1 1.3-.6 1.7 4 4.1 3.3 1.8 4.6 1.6 5.8-1 1.1-2.2 2.7-11.1 3.9-21.7.4-3 1.3-7 2-8.9.8-1.8 1.4-4.8 1.4-6.7 0-3.7 3.7-14.4 5-14.4.4 0 1.1 1 1.4 2.2 1 4 10 14.3 11.6 13.3 1.3-.8.2-3.1-3.1-6.8-1.6-1.7-2.9-3.7-2.9-4.3 0-.6-.9-1.9-2-2.9s-2-2.8-2-4.1c0-1.3-.4-2.5-.9-2.8-.4-.3-1.4-2.7-2.1-5.3-.7-2.7-1.7-5.2-2.1-5.8-1.2-1.2-1.1-4.5 0-4.5.4 0 2 .9 3.4 2s3 2 3.5 2 .9.8.8 1.7c-.1 1.3.5 1.7 2.2 1.6 1.6-.2 2.8.6 4.2 2.9 1.8 3.1 4.9 4.5 14 6.4 5.2 1.2 16.6 5.8 18.5 7.6 2 1.9 2 1.9-.5 3.8l-2.5 1.9 3 1.1c1.7.6 4.4 2.5 6.2 4.2 1.7 1.7 4.2 3.6 5.5 4.2 2 1 5.6 6.6 5.8 8.9 0 .4-1.1 1.3-2.5 1.9-1.4.6-2.4 1.6-2.2 2.2.3.6-.2 1.9-1 2.8-2.8 3.2-.9 6.2 6.1 9.7 8.5 4.2 13.9 4.2 20 0 2.6-1.7 4.9-4.1 5.2-5.5.3-1.3.9-2.4 1.3-2.4s1.2-1.3 1.8-2.9c.9-2.6.8-3.2-.9-4.8-1.1-1-3.1-3.5-4.4-5.5-1.3-2-3.9-4.4-5.8-5.3-1.9-.9-5.2-3.6-7.5-6.1-2.2-2.4-5.1-4.8-6.5-5.4-1.5-.5-3.5-2.9-5-5.8-2.7-5.4-3.2-5.6-13.8-6.7-4.8-.5-8-1.5-11.1-3.5-2.4-1.5-5.3-3.1-6.4-3.4-1.1-.4-2.8-1.5-3.8-2.6s-2.4-2-3.2-2c-.8 0-3-.8-5.1-1.9-2-1-4.2-1.6-4.9-1.4-.7.3-1-.3-.6-1.5.5-2.2-2.3-3.7-5.1-2.6-1 .4-2.6-.4-4.4-2.2-1.5-1.6-4.7-4.7-7.1-6.8l-4.4-3.9.7-8.1c.3-4.5.9-13.3 1.2-19.6.4-6.3 1.1-12.1 1.7-12.8.5-.6 2.1-1.2 3.6-1.2 1.4 0 3.9-.9 5.4-1.9l2.9-1.8-3.5-2.2c-1.9-1.1-3.9-2.1-4.6-2.1-1.7 0-1.3-1.1 1.1-3.7 2-2.2 2-2.4.6-6.2-1.4-3.5-1.4-4-.1-4.5 2.8-1.1 5.2-.6 6.3 1.4 2.1 3.8 9 6 9 2.9 0-1.4-3.8-4.7-6.7-5.9-3.4-1.4-3.3-7.6.2-9.2 1.7-.7 2.5-1.8 2.3-3.1-.2-1.3 1-2.6 4-4.3 4-2.3 4.4-2.3 6.7-.8 2.1 1.4 2.5 1.4 2.5.2 0-.8-.9-2.3-2-3.3-1.8-1.7-2.1-1.6-6.2.4-2.4 1.1-5.6 3-7.3 4.1-3.2 2.1-8 2.6-10.4 1.1-2.5-1.6.1-5.7 4.1-6.5 1.8-.4 4.7-.9 6.3-1.3 1.7-.3 3.7-1.1 4.5-1.8.8-.8 2.8-1.7 4.3-2 1.8-.5 2.7-1.3 2.5-2.4-.4-2.2-3.6-2.6-5.7-.7-2.1 1.9-3.4.9-4.5-3.6-.7-3.1-2.3-3.5-5.2-1.3-2.7 2.1-3.4 1.9-3.4-1.1s4.2-8.9 9.4-13.2c1.2-1 2.1-1 3.8-.1 1.3.7 2.9 1.5 3.7 1.8 2.6 1.2.9 2.6-4.6 3.8-7.5 1.8-7.9 2.2-4.8 4.9 3.2 2.7 9.5 3.3 11.5 1 .6-.8 2.1-1.6 3.3-1.8 1.5-.2 2.3-1.1 2.5-2.8.2-1.4.8-2.9 1.3-3.5 1.6-1.6 1-4.3-1.3-5.9-3.2-2.3-5.1-2.1-4.3.4.7 2.3-.4 2.6-3 .6-1.6-1.1-1.7-1.6-.6-2.9 1-1.3.9-1.7-.8-2.7-1.2-.6-2.1-1.8-2.1-2.7 0-1.2.6-1.4 2.8-.9 1.5.4 4.1 1 5.7 1.3 1.7.3 3.8 1.2 4.7 2 1.2 1.1 2.1 1.2 3.7.4 4.1-2.3 5.3-1.5 4.9 3.1-.3 2.4-.1 7.4.4 11.3.5 4.2.4 7.3-.1 7.8-.6.6 0 2.2 1.6 4.3 2 2.6 3.3 3.4 5.8 3.4 4.2 0 9.1-3.6 7.4-5.6-2.1-2.5-.3-3.8 8.1-5.6 4.5-1 8.5-2 8.7-2.2.3-.2-.3-1.6-1.2-3-1-1.4-1.3-2.7-.9-2.7 2.6-.4 5 .5 6.2 2.2 1.7 2.4 4.5 1.8 8.4-1.9 3.5-3.2 2.7-4.5-2.2-3.7-2.3.4-4.1.2-4.5-.4-.3-.6-1.6-1.1-2.9-1.1-1.2 0-2.7-.5-3.4-1.2-.8-.8-1.5-.8-2.7.2-1.2 1-2 .9-4.1-.4-3.2-2.2-2.7-3.6 1.7-5.2 2.8-1 3.1-1.3 1.6-1.9-1-.4-3.5-.5-5.5-.1-3.4.5-4.1.2-8.8-4.5l-5.2-5.1-1.6 2.3c-.9 1.3-1.6 2.9-1.6 3.5 0 .6-.9 1.9-1.9 2.8-1.6 1.5-2.2 1.5-3.9.5-1.7-1-2.3-1-3.7.1-1.5 1.3-2 1-4.4-1.8-2.8-3.4-5.1-4.2-5.1-1.7 0 2-1.3 1.9-3.8-.2-2.1-1.8-2-1.9 5.3-9.7l7.3-7.9 5.5-.1c5.3 0 5.5-.1 4.1-2-.8-1.1-1.4-2.4-1.4-2.8 0-1.2 3.5-.9 4.8.4.9.9 1.3.7 1.8-.5.8-2.1 6.4-2.3 10.3-.3 2.7 1.4 2.9 1.4 5.1-1.6 1.9-2.6 2.6-2.9 5.4-2.3 3.9.9 11.1 1 15.3.2 2.5-.4 3.1-.2 2.6.9-.5 1.3.8 1.8 4.5 1.7.6-.1 1.3.3 1.4.8.4 2.9.1 3.4-2.7 3.4-2 0-3 .5-3 1.5s2 1.9 6.5 2.8c3.8.7 7.4 2.1 8.7 3.4 1.8 1.7 2.6 1.9 3.5 1 1.7-1.7 8.7-1.5 12.2.3 1.5.8 3.9 1.5 5.2 1.5 1.2 0 2.6.5 3 1.2.5.8-1.1.9-6.4.5-3.9-.4-7.3-.3-7.6.2-.7 1.1 1.7 2.1 4.8 2.1 3.2 0 6.4 2.7 8.1 6.7 1.4 3.4 1.7 3.5 5.3 2.8 2-.4 4.8-.8 6.2-.9 1.4-.2 3.1-.4 3.8-.4 1.7-.2.6-4.2-1.7-6-1.4-1.2-.6-1.3 4.9-.7 7.8.9 8 1 8 4.1 0 1.7.6 2.4 1.9 2.4 4.9 0 5.1-.4 5.1-14.1V355h-4.5c-4.8 0-6.1-1.6-2.1-2.6 4.1-1 6.6-4.9 6.6-10.3v-4.8l-5-.7c-3.8-.5-5.7-1.4-8-3.9-2.1-2.2-3-2.7-3-1.6 0 1.6-3.9 3.9-6.5 3.9-.9 0-1.5-1-1.5-2.4 0-5.2-1.2-8.6-3.1-8.6-1.1 0-1.9-.5-1.9-1 0-.6.7-1 1.5-1 2 0 1.9-.6-.7-4.3-1.2-1.8-2.2-3.3-2.2-3.4-.1-.1-1.4-.5-3-.9-2.8-.7-2.9-.6-2.2 2 .4 1.5.4 3.6.1 4.7-.6 1.9-.7 1.9-3.2-.1-3.4-2.6-5.4-2.5-9.9.5-4.2 2.9-7.4 3.2-7.4.9 0-.9-.9-1.8-2-2.1-1.1-.3-2-1.4-2-2.5 0-1.5.5-1.8 2-1.3 1.4.4 2.2.1 2.6-1 .8-2 .6-2.2-2.9-3-2.1-.6-2.7-.4-2.7.9 0 1.9-5.9 2.3-7.7.5-.7-.7-2.6-.8-5.2-.4-3.4.6-4.4 1.3-6.7 5.3-1.5 2.6-2.9 4.9-3 5.1-.2.2-3.9.7-8.1 1.1-10.1.9-17.8-1.5-18.6-5.8-.7-3.4-.2-3.9 2-2 2.1 1.7 4.9 1.3 5.7-.8.3-.9-.1-1.4-1.2-1.4-2.1 0-4.2-1.9-4.2-3.7 0-.9.8-1.1 2.4-.7 3.2.8 3.6-.2 2.4-6.3-.8-4-.7-6.1.4-9.5l1.5-4.3 6.9-.8c5.8-.6 7.1-.5 8.1.9.8 1.1 3.1 1.8 6.8 2 3.1.2 6.5.9 7.6 1.4 1 .6 3.4 1 5.2.8 1.8-.1 3.9.2 4.7.7.8.5 4.5.9 8.2 1 3.9 0 7.2.5 8 1.3.6.6 2.7 1.2 4.4 1.2 1.8 0 3.6.4 3.9 1 .3.5 2.1 1 3.9 1 1.9 0 3.9.6 4.5 1.4 1.5 1.7 14 1.8 16.1.1 2-1.6 9-.7 9 1.1 0 .7.9 1.8 1.9 2.4 1.9 1 2 .6 1.9-7.1v-8.1l-3.8.6c-3.2.5-4.8 0-10.6-3.4-4.9-2.9-7.6-3.9-9.4-3.5-1.6.3-3.6-.2-5.5-1.5-3.5-2.3-9.7-2.6-11.5-.5-1.3 1.5-5.3 1.2-7.6-.7-1.4-1-2.4-5.7-1.4-6.3 1.3-.8 14.5 1.6 17.7 3.2 2.6 1.4 3.6 1.5 5.8.5 3.3-1.5 3.1-1.5 5.2.7 2.8 2.9 16.6 6.6 20.1 5.4 1.5-.6 1.8-23.3.2-23.3-.5 0-1-.6-1-1.4 0-2.2-1.7-2.8-3.8-1.5-1.3.8-4 .9-8.8.4l-6.9-.7 2.8-2.2c3.4-2.7 3.4-4 .2-5.4-2.8-1.3-3.2-2.7-1-3.6.8-.3 2.1.4 2.9 1.5.9 1.4 3.2 2.3 6.7 2.9 3 .4 6.4 1.1 7.7 1.5l2.2.7V141.8l-2.7.7c-3.6 1-12.5.6-13.7-.5-.5-.5-1.7-.5-2.7.1-1 .5-3.1.6-4.5.3-2.6-.7-2.6-.8-.9-2 1.1-.8 2.9-1.4 4.2-1.4 2.6 0 3.1-1.8.8-2.6-2.1-.8-1.9-4.4.2-4.4 1.4 0 1.4-.3.5-1.2-1-1-1.4-1-2.1 0-.4.7-2.4 1.5-4.4 1.9-3 .4-3.7.2-3.7-1 0-.9.4-1.8.9-2.1.4-.3 1.1-1.9 1.4-3.6.5-2.1 1.2-3 2.7-3 1.1 0 2 .4 2 .9s1.2 1.1 2.8 1.3c1.9.2 2.8.9 3 2.5.5 3.2 2.8 4.9 4.7 3.3.8-.7 2.4-1 3.5-.7 1 .3 2.4-.1 3.1-.9.6-.8 2-1.4 3-1.4 1.8 0 1.9-1 1.9-16.4 0-9.9-.4-16.7-1-17.1-.5-.3-1-1.7-1-3.1 0-1.3.5-2.4 1-2.4.6 0 1-1.1 1-2.5s-.5-2.5-1.2-2.5c-.9 0-.9-.3 0-1.2.7-.7 1.2-3.7 1.2-6.8 0-5.3-.2-5.6-3-6.7-3-1.1-4.2-4.3-1.7-4.3.8 0 2.1-.8 3-1.8 1.5-1.6 1.7-5.4 1.7-32.5V0h-25.4c-19.4 0-25.6.3-25.9 1.2-.4 1-.7 1-1.4 0-.7-.9-8.5-1.2-35.3-1l-34.3.3 3.1 3.2c3 3 4.2 6.3 2.3 6.3-.5 0-1.4-.7-2.1-1.5-1.2-1.4-1.5-1.3-3.5.5-2.4 2.3-3.9 2.5-8.4.9-2.5-.9-2.9-1.4-2-2.5 1.4-1.7 4.1-1.8 5.7-.2 1.9 1.9 3.9-.7 3.4-4.2l-.4-3-27.7.2-27.6.3-.5 2.8c-.3 1.7-1.5 3.4-2.9 4.2l-2.4 1.3 2.3.7c1.3.4 3.6 2.1 5.1 3.8 1.5 1.6 4.9 3.7 7.6 4.6 3.6 1.2 4.9 2.2 5.1 3.8.2 1.3.8 2.3 1.3 2.3s.9.7.9 1.5c0 2.6-4.6 1.7-7.8-1.6-2.5-2.6-3.6-3.1-6.4-2.7-3.3.5-4.4 0-15.1-7-2-1.4-3.7-2.8-3.7-3.2 0-.4 1.6-1.5 3.5-2.4 3.1-1.5 3.4-2.1 3.1-4.9l-.3-3.2L352 .3c-57-.2-58.2-.2-58.7 1.8-.7 2.5-2.3 2.4-2.3-.2 0-2-.4-2-8.7-1.5-11.4.7-10.2.7-29.6 0-18.4-.7-20.2-.2-19.2 4.5.4 2.2-.1 3-3.1 4.9-2 1.3-4.2 2.1-5 1.8-2.4-.9-1.5-4 1.7-5.8 1.9-1.2 2.9-2.4 2.7-3.5-.3-1.5-1.5-1.9-6.6-2.1-4.4-.2-6.2.1-6.2 1s-.3.9-1.2 0C214.2-.4 144-.5 144 1c0 1.3-9.7 1.3-10.5.1-.3-.6-26.4-1-67-1L0 0v25.6zM511.4 4.7c.4.4-.3 1.5-1.6 2.4-2 1.6-2.1 1.9-.8 4.4 1.1 2.1 1.2 3 .2 4.6-1 1.6-1 2.3.3 3.5.8.9 1.5 2 1.5 2.6 0 .6.8 2 1.7 3 2.2 2.4.8 3.4-5.6 4.4-4.1.6-4.6.4-7.2-2.6-1.6-1.8-2.9-3.6-2.9-4 0-.4 1.1-2.3 2.4-4.3 1.3-1.9 2.2-3.8 1.8-4.1-.3-.3-2.4-.6-4.6-.6-3.8 0-4.1-.2-4.2-2.9-.1-2.8.2-3 6.5-4.5 5.7-1.3 9-2 11.2-2.5.3 0 .9.2 1.3.6zM549 8c0 4.8-1.6 5.3-2.3.7-.5-3.4-.1-4.7 1.4-4.7.5 0 .9 1.8.9 4zM253.4 5.6c2.2.8 2 3.1-.3 4.3-2.3 1.3-4.5-.8-3.5-3.3.7-1.7 1.4-1.9 3.8-1zM455 15.4c0 1.3-.7 2.7-1.6 3-1.7.7-7.4-1.9-7.4-3.4 0-.6-.9-1-2-1s-2-.3-2-.6c0-1 2.2-4.8 3.9-6.7 1.5-1.8 1.7-1.7 5.3 2.2 2.2 2.4 3.8 5 3.8 6.5zM218.7 6.6c-.3.3-1.2.4-1.9.1-.8-.3-.5-.6.6-.6 1.1-.1 1.7.2 1.3.5zM57.1 10c1.3.8 2.5.7 3.9 0 1.5-.8 3.2-.7 6.8.6 2.6.9 7 1.6 9.8 1.5 5-.1 9.7 2 8.1 3.6-1.1 1.1-19.9.4-21.1-.8-.6-.5-6.1-.9-12.3-.9-11.8 0-13.9-.9-8-3.4 3.9-1.7 10.1-2 12.8-.6zm251.9.4c0 1.6-5.4 4.1-6.9 3.1-1.8-1-1.3-2.1 1.7-3.2 3.8-1.5 5.2-1.5 5.2.1zm-22.6 3.2c.8 2.2.8 2.4-.8 2.4-1.5 0-2.8-2.4-1.9-3.4 1.1-1 2.1-.7 2.7 1zM32.3 17.5c-.3.8-.9 1.5-1.4 1.5-1 0-1.2-2.4-.3-3.3 1.1-1.1 2.4.3 1.7 1.8zm305.6-1.1c.9 1.1.8 1.5-.5 2-2.6 1-3.4.7-3.4-1.4 0-2.3 2.2-2.7 3.9-.6zm177.1-1c0 .2-.7.9-1.5 1.6-1.2 1-1.5 1-1.5-.4 0-.9.7-1.6 1.5-1.6s1.5.2 1.5.4zm-400.7 3.7l2.1 1.2-2.4.9c-2.3.9-4.5-.6-3.4-2.4.7-1.1 1.1-1 3.7.3zM365 23.4c-1.3 1.3-3.5-.7-2.5-2.4.5-.8 1.1-.8 2.1.1 1 .8 1.2 1.5.4 2.3zm102 .7c0 2.1-1.6 2.4-4 .9-1.3-.9-1.2-1.2.4-2.5 2.2-1.7 3.6-1.1 3.6 1.6zm-14.2 2.6c.2.8-.5 1.3-1.7 1.3s-2.1-.6-2.1-1.6c0-1.8 3.1-1.5 3.8.3zM532.5 47c.3.5-.1 1-.9 1-.9 0-1.6-.5-1.6-1 0-.6.4-1 .9-1 .6 0 1.3.4 1.6 1zM52.8 49.3c.2 1-.3 1.7-1.2 1.7-1.8 0-2.9-1.6-2.1-3.1.9-1.4 2.9-.6 3.3 1.4zM96.6 63c2.9 0-.3 2.7-3.8 3.2-2.5.4-3.8-.1-5.7-2l-2.6-2.6L87 61c1.4-.4 3.7-.1 5.2.7 1.5.7 3.5 1.3 4.4 1.3zM516 60.7c0 .5-.5 1.5-1 2.3-.8 1.2-1 1.1-1-.8 0-1.2.5-2.2 1-2.2.6 0 1 .3 1 .7zm-396 6.1c-4 .4-4.9-.4-2.4-2.2 1.7-1.3 2.1-1.2 3.8.2 1.8 1.6 1.7 1.7-1.4 2zm21-.2c0 2.1-2.8 2.8-4.6 1.3-1.4-1.2-1.4-1.4.1-2.5 2-1.5 4.5-.8 4.5 1.2zm439 2c0 .4-1.1 1.9-2.5 3.6-2.6 3.1-3 2.5-1.9-3 .6-2.7.9-3 2.5-2.1 1.1.5 1.9 1.2 1.9 1.5zM561.5 72c.3.5.1 1-.4 1-.6 0-1.1-.5-1.1-1 0-.6.2-1 .4-1 .3 0 .8.4 1.1 1zm-35.7 5.8c2.3.8 1.2 2.4-1.2 1.8-1.4-.3-2.8-.2-3.1.4-1.5 2.4-9.5.5-9.5-2.3 0-.8 11.2-.7 13.8.1zm70.7 6.2c.3.5-.1 1-.9 1-.9 0-1.6-.5-1.6-1 0-.6.4-1 .9-1 .6 0 1.3.4 1.6 1zm-94.2 1.4c-1.2 2-6.9 6.6-8.2 6.6-.6 0-1.1-1.5-1.1-3.4 0-3.2.3-3.5 3.3-3.9 6.5-.8 6.8-.8 6 .7zm-21.7 2.2c-.7 3.4-.8 3.5-3.1 1.8-1.7-1.2-1.8-1.6-.5-2.4.8-.5 1.8-.6 2.2-.4.4.3.8 0 .8-.5 0-.6.2-1.1.5-1.1s.3 1.2.1 2.6zM458 89.9c0 .6-.4 1.3-1 1.6-.5.3-1-.1-1-.9 0-.9.5-1.6 1-1.6.6 0 1 .4 1 .9zm79 4.7c0 .8-.5 1.2-1 .9-.6-.4-.8-1.1-.5-1.6.9-1.4 1.5-1.1 1.5.7zM523 107c0 .5-.5 1-1.1 1-.5 0-.7-.5-.4-1 .3-.6.8-1 1.1-1 .2 0 .4.4.4 1zm24.5 2.8c0 1.8-2 1.5-2.3-.4-.3-1 .1-1.5 1-1.2.7.3 1.3 1 1.3 1.6zm-72.5 3.6c0 2.4-2.6 2.7-10.7 1-4.7-.9-2.1-2.4 4.2-2.4 4.9 0 6.5.3 6.5 1.4zm16.8 1.9c.8.6 1.7.5 2.6-.2.8-.7 2.5-.9 4-.5 1.6.4 3.3.1 4.3-.7 1.5-1.3 1.5-1.2.3.7-.7 1.2-1 2.9-.7 3.8.6 1.6.9 1.6 3.6-.3 3-2.2 5.1-2.7 5.1-1.3 0 2-7.3 4.6-12.3 4.3-7.5-.4-11.7-2.4-11.7-5.5 0-2 .4-2.4 1.8-1.9.9.3 2.3 1 3 1.6zm29.1 3.9c.7.8 4.4 1.4 9.4 1.5 9.8.1 20.3 1.5 20 2.5-.2.5-.3 1.2-.3 1.8 0 2.2-6.9 2.2-11.4 0l-4.6-2.2-5.7 2.7c-3.2 1.5-7.5 3.5-9.5 4.4-2.1 1-3.9 1.7-4.1 1.5-.6-.7 1.7-10.9 2.8-12.1 1.3-1.6 1.8-1.6 3.4-.1zm43.1 5.2c0 .8-.4 1.8-1 2.1-.5.3-1-.3-1-1.4 0-1.2.5-2.1 1-2.1.6 0 1 .6 1 1.4zm-.6 5.8c.5.9.8 1.9.5 2.2-.7.8-7.9-1.3-7.9-2.3 0-2.7 5.7-2.6 7.4.1zm-.9 13.5c1.8 1.4 1.8 1.5.2.9-1-.3-2.8-.6-4-.6-1.8 0-1.9-.2-.7-1 1.9-1.3 2.1-1.2 4.5.7zm10.8 2.7c.7-.2 3 .4 5.2 1.5l4 2-4.3.1c-5 0-9.4-2.4-8.5-4.7.5-1.4.7-1.4 1.5 0 .5.9 1.4 1.4 2.1 1.1zM424.5 148c.3.5.1 1-.4 1-.6 0-1.1-.5-1.1-1 0-.6.2-1 .4-1 .3 0 .8.4 1.1 1zm2.5 12.7c-.1 3.9-.3 4.4-1.1 3-.6-1-.8-2.5-.5-3.2.3-.8.1-1.7-.4-2-1.5-.9-1.2-2.5.5-2.5 1.1 0 1.5 1.2 1.5 4.7zM8.5 162c.3.5-.1 1-.9 1s-1.8-.5-2.1-1c-.3-.6.1-1 .9-1s1.8.4 2.1 1zm73.5 2.6c0 1.2-.6 1.5-2.2 1-1.3-.3-2.9-.6-3.5-.6-.7 0-1.3-.5-1.3-1 0-.6 1.6-1 3.5-1 2.6 0 3.5.4 3.5 1.6zm-24 2c0 .8.5 1.4 1.1 1.4.5 0 .7.4.4 1-.3.5-1.5 1-2.5 1-2.3 0-3.8-3.9-1.9-5.1 1.6-1 2.9-.2 2.9 1.7zm-23.7 2.1c.5.3 0 1.4-.9 2.5-2.3 2.4-5.9 1.7-9.3-1.9l-2.3-2.5 5.8.7c3.3.4 6.3 1 6.7 1.2zm65.7-.1c0 .2-.9.4-2 .4s-2-.4-2-.9.9-.7 2-.4c1.1.3 2 .7 2 .9zm320.5 3c.2 3.5-1.1 5.4-3.7 5.4-2.8 0-3.4-2.9-.9-4.6 1.1-.8 2.1-2.2 2.1-3 0-2.9 2.3-.8 2.5 2.2zM72 170c0 .5-.5 1-1.1 1-.5 0-.7-.5-.4-1 .3-.6.8-1 1.1-1 .2 0 .4.4.4 1zm22.7 3.3c.9 2.1 1.3 4 1 4.3-.9 1-6.7-3.9-6.7-5.6 0-4.5 3.8-3.7 5.7 1.3zm486 1.3c-.9.9-2.8-.6-2.1-1.8.4-.6 1-.6 1.7.1.6.6.8 1.3.4 1.7zm-178.2 6.1c-.8 3.4-2.3 5.3-4.1 5.3-1.9 0-1.8-1.6.3-5.1 2.3-3.8 4.8-3.9 3.8-.2zM393 185c0 .5-.2 1-.4 1-.3 0-.8-.5-1.1-1-.3-.6-.1-1 .4-1 .6 0 1.1.4 1.1 1zm-4.4 2.2c-.3 1.3-.6 2.9-.6 3.5 0 .7-.7 1.3-1.5 1.3-1.8 0-1.9-.9-.5-4.4 1.2-3.2 3.5-3.5 2.6-.4zm42.4 13.9c-.7 1.1-1.4 1.8-1.7 1.5-.8-.8.5-3.6 1.7-3.6.7 0 .7.6 0 2.1zm-58 8.3c0 .7-1.1 1.6-2.5 1.8-2.9.6-3.2 0-.7-1.8 2.2-1.7 3.2-1.7 3.2 0zm8.4 5c-.3.9-1.2 1.6-2 1.6s-1.9.9-2.6 2c-1.6 2.5-3.8 2.6-3.8.1 0-1.3.9-2.1 2.9-2.6 2.1-.4 3.1-1.4 3.6-3.3.6-2.3.8-2.4 1.6-1 .5.9.6 2.3.3 3.2zm117.6-1.8c0 1.7-2.2 1.4-2.8-.4-.2-.7.3-1.2 1.2-1.2.9 0 1.6.7 1.6 1.6zm-111 2.7c0 .2-.9 1.2-2 2.2-1.9 1.8-2 1.7-2-.3 0-1.5.6-2.2 2-2.2 1.1 0 2 .2 2 .3zm106.3 5.2c.1.5-.6 1.1-1.5 1.3-1.1.2-1.8-.3-1.8-1.3 0-1.7 3-1.8 3.3 0zM374.5 227c.3.5-.1 1-.9 1-.9 0-1.6-.5-1.6-1 0-.6.4-1 .9-1 .6 0 1.3.4 1.6 1zm130.6 1c2.8 2.2 2.4 2.4-1.9.9-1.8-.6-2.9-1.5-2.6-2 .8-1.4 1.9-1.1 4.5 1.1zm32.9.5c1.7.9 3 2.3 3 3.2 0 1.3-.8 1.5-4.6.9-2.6-.3-5.4-.6-6.2-.6-1 0-.6-.8 1.2-2.5 3.2-2.9 2.9-2.9 6.6-1zm12.8 3.9c3.4 0 6.2.4 6.2.7 0 1.8 3.2 1.6 4.9-.2 1.3-1.4 2.6-1.9 3.9-1.5 2.8.9 3.6 3.6 1.5 5.3-1.6 1.2-1.5 1.3 1.5.9 1.8-.2 4-1 4.7-1.6 1.5-1.3 6.5-.6 6.5.8 0 .5-1.1 1.8-2.3 3-2.2 2.1-2.6 2.2-6 .7-2-.8-5.1-1.5-6.9-1.5-1.8 0-5.3-.7-7.6-1.5-2.7-1-5.7-1.3-7.8-.9-4.2.8-7.4-1.6-7.4-5.4 0-2.4.1-2.4 1.3-.8 1 1.4 2.8 1.8 7.5 2zm-164.9.5c-.2 2.5-1.7 6.8-1.8 5-.1-.9-.4-3.1-.7-4.8-.6-2.6-.4-3 1-2.5.9.3 1.6 1.4 1.5 2.3zm91.2-1c1.7 1.6 1.9 2.3 1 4-1.4 2.5-4.8 2.7-7.3.4-1.8-1.6-1.8-1.7.4-4 2.6-2.8 3.3-2.8 5.9-.4zm-110.1.8c0 2.9-1.4 4.3-3.8 3.6-2.4-.6-3-2.3-.8-2.3.8 0 1.6-.7 2-1.5.8-2.1 2.6-1.9 2.6.2zm158-1.3c0 .3-.4.8-1 1.1-.5.3-1 .1-1-.4 0-.6.5-1.1 1-1.1.6 0 1 .2 1 .4zm-5.6 4.1c-2.5 1.9-4 1.9-2.4 0 .7-.8 2-1.5 2.8-1.5 1.3 0 1.2.3-.4 1.5zm69.6 3.3c0 .5-.6 1.6-1.3 2.6-1.2 1.6-1.4 1.6-2.6.2-.7-.8-1-2-.6-2.6.7-1.2 4.5-1.4 4.5-.2zm-109.7 2.4c2.4 1.2 6.7 5.8 6.7 7.1 0 .4 1 2.1 2.1 3.6 2.6 3.5 1.6 6.2-1 3-1.9-2.4-9.4-4.8-15.1-4.8-10.3-.1-22.5 7.7-41.6 26.6-3.4 3.5-6.6 6.3-7 6.3-1.6 0-7.4-6.5-7.4-8.3 0-1 .6-3.3 1.4-5 .8-1.8 2.5-6 3.8-9.5 2.8-7.2 10.2-16.9 13.7-17.8 1.9-.6 2.9-.1 4.6 1.9 2.5 3.3 4.3 3.4 9.2.4 2.1-1.2 5.1-2.7 6.8-3.3 4.1-1.6 21.1-1.7 23.8-.2zm21.2.9c3.3.6 8 2.2 10.5 3.5 2.4 1.3 5.2 2.5 6 2.5.8.1-.3.5-2.5.9-2.3.5-5.7.4-8-.2-2.2-.5-7.3-1.4-11.3-2-4.5-.7-7.6-1.6-7.9-2.4-.3-.8-1.1-1.4-1.9-1.4-.8 0-1.4-.5-1.4-1 0-1.3 9.1-1.3 16.5.1zm31.2 30.5c-.3.3-1.2.4-1.9.1-.8-.3-.5-.6.6-.6 1.1-.1 1.7.2 1.3.5zm10.5 1.2l4.3.8-3.4 1.7c-3.8 1.9-6.1 2.2-6.1.7 0-.6-.7-1-1.5-1s-1.5-.6-1.5-1.4c0-1.5 2-2.6 3.2-1.9.4.2 2.7.7 5 1.1zm-49 6.9c-.1 7.8-1.4 18.3-2.3 18.3-.4 0-1.1-.5-1.5-1.1-.4-.7-1-.7-1.6-.1-.7.7-.6 2.3.2 4.7 1.6 4.7.6 12.1-2.5 20-3.3 8.4-5.5 14.8-5.5 16.4 0 2.7-7.9 18-12.1 23.6-2.4 3.1-5.1 6.8-6 8.2-2.2 3.3-5.6 6.3-6.2 5.6-.6-.5-1.4 2.2-1.9 6.5-.3 2-2.2 3.3-2.3 1.4-.1-.4-.4-2-.8-3.5l-.8-2.8-3 2.5c-1.7 1.4-4.2 2.6-5.5 2.6-1.4 0-3.4.5-4.5 1.1-3.2 1.7-15.4 2.3-18.1.8-3.2-1.7-3.8-2.8-3.8-7.3 0-4.1 2.7-15.3 4.2-17.2.4-.6 1.1-3.1 1.4-5.6.5-3.9 1-4.6 3.8-5.6 1.8-.7 4.3-1.2 5.6-1.2 2.5 0 9-6.2 9-8.6 0-.8.9-2.2 2.1-3.2 1.1-.9 2.9-3.3 4-5.4 2.8-5.5 6.5-8 11.4-7.6l4 .3-.2-4.8c-.2-2.6-.9-5.8-1.7-7-.8-1.2-1.8-4.2-2.2-6.7-.4-2.5-1.4-5.3-2.2-6.3-2.5-2.8-.4-4.9 6.6-6.5 5.8-1.4 6.4-1.4 9.8.4 1.9 1 4.2 2.7 5.1 3.6 2 2.2 5.5 2.3 9.3.3 2.6-1.4 2.8-1.8 1.8-3.5-1-1.6-1-2.4 0-3.8 1.9-2.7 3-5.3 4.2-10.1 1.4-5.3 2.3-4.7 2.2 1.6zm-66.5 15c.9 1.6 2.3 3.5 3 4.3 3.8 4.2 7.3 10.8 7.3 13.7 0 4.9-4.9 17.4-8.4 21.3-1.7 1.9-3.9 4.6-4.9 6-1.7 2.5-1.8 2.4-1.2-5.6.5-6.5.3-8.3-.8-8.7-2.8-1-2.8-18.2-.1-31.5.6-3 3-2.8 5.1.5zm112.6 26.5c.3 1.2.2 2.9-.3 3.8-.6 1.1-.4 2.4.6 3.8 1.9 2.7 1.3 3.7-4.4 7.3-4.6 2.9-6.6 3-5.5.3.4-1.2.1-1.3-2.2-.4-4.1 1.6-6.4 1.2-9-1.5-3-3-3.3-7.5-.5-10 1.9-1.7 2-1.7 3 .9.8 2.3 1.5 2.7 4.2 2.4 2.4-.2 3.3-.8 3.2-2-.1-1 1.1-2.2 2.7-2.9 1.6-.6 2.9-1.8 2.9-2.5 0-2.4 4.7-1.7 5.3.8zM491 332c0 1.2-2.8 2.5-3.6 1.7-.9-.9.6-2.7 2.2-2.7.8 0 1.4.5 1.4 1zm61.4 4.5c.4 1.1-.2 1.5-2.2 1.5-3.7 0-7.2-1.1-7.2-2.1 0-1.6 8.7-1 9.4.6zm-53 2.4c.5.1.3.8-.4 1.6-.7.9-2.1 1.3-3.5.9-1.3-.3-4 .3-6.5 1.6-2.3 1.2-5 2-6.1 1.8-1.9-.3-1.9-.4.1-3.5 2.1-3.4 2.1-3.4 16.4-2.4zM424 345c0 .5-.2 1-.4 1-.3 0-.8-.5-1.1-1-.3-.6-.1-1 .4-1 .6 0 1.1.4 1.1 1zm169.9 1.6c1 .9-1.1 3.4-2.8 3.4-2.4 0-3.5-1.5-2.7-3.6.4-1.1 1.3-1.3 2.8-.8 1.3.3 2.5.8 2.7 1zm-9.4 1.3c1.7.4 3.1 1.4 3.3 2.5.3 1.4 0 1.5-1.5.7-1-.5-3.3-1.6-5-2.3-1.8-.7-3.3-1.7-3.3-2.2 0-.4.8-.5 1.8-.1.9.4 3 1 4.7 1.4zM574 349c0 .5-.7 1-1.5 1s-1.5.4-1.5.8c0 1.4-4.8 3.2-8.4 3.2-3.6 0-5.4-2.1-3.3-3.8 2.1-1.8 14.7-2.8 14.7-1.2zm-27.3 2.6c-.3.3-1.2.4-1.9.1-.8-.3-.5-.6.6-.6 1.1-.1 1.7.2 1.3.5zM26.5 371c.3.5-.1 1-.9 1-.9 0-1.6-.5-1.6-1 0-.6.4-1 .9-1 .6 0 1.3.4 1.6 1zm-7.5 2c0 .5-.5 1-1.1 1-.5 0-.7-.5-.4-1 .3-.6.8-1 1.1-1 .2 0 .4.4.4 1zm26.5 0c.8 1.3-2 2.4-4.1 1.6-2-.8-.9-2.6 1.6-2.6 1 0 2.2.5 2.5 1zm529.9.9c1.7 1.9 1.7 2-.3 3-2.4 1.3-8.8 1.4-9.5.2-.7-1.1 4.3-5 6.5-5.1.9 0 2.4.9 3.3 1.9zm-236.4 25c0 1.3-2.8 2.2-3.5 1.1-.3-.4.1-1.1.7-1.3 2-.8 2.8-.8 2.8.2zm-2 6.7c.6 1.5.7 3.2.1 4.1-.6 1.2-1 .5-1.3-2.5-.4-4.9-.1-5.2 1.2-1.6zm-306.5 9.5c-.4.6.3 2.1 1.6 3.5l2.2 2.4h-2.2c-1.2 0-2.4-.8-2.8-1.8-.3-.9-1.5-2.5-2.7-3.4-2.1-1.7-2.1-1.8 1.2-1.8 2.1 0 3.1.4 2.7 1.1zm-13.4 6.4c-.1 1.5-2.4 1.2-2.9-.3-.3-.9.2-1.3 1.2-1 1 .1 1.7.7 1.7 1.3zm22.9.6c0 1.1-.4 1.7-1 1.4-.5-.3-1-1.3-1-2.1s.5-1.4 1-1.4c.6 0 1 .9 1 2.1zm-34.5.9c.3.6-.1 1.3-1 1.6-1.9.8-3 0-2-1.5.8-1.4 2.2-1.4 3-.1zm59 2c1.4 0 2.5.4 2.5 1 0 .5 1.1 1 2.5 1s2.5.6 2.5 1.4c0 .9-1.8 1.3-6.7 1.4-7.7.2-9-.4-6.8-2.8.9-1 1.5-2.1 1.4-2.6-.4-2.2.2-2.8 1.2-1.2.5 1 2.1 1.8 3.4 1.8zm19.8 1.7c-.7.2-2.1.2-3 0-1-.3-.4-.5 1.2-.5 1.7 0 2.4.2 1.8.5zM37 429.5c.7.9 1 1.8.7 2.1-1 1.1-5.4-.5-6.1-2.1-.7-2 3.7-2 5.4 0zm51.8 4.5c1.9 0 1.4 3-.5 3.6-1 .3-2.6 1-3.5 1.5-3 1.6-4.6 1-6.2-2.3-2.2-4.3-2-4.8 1.3-4.2 1.7.4 3.2.1 3.6-.6.5-.8 1.2-.7 2.4.4 1 .9 2.3 1.6 2.9 1.6zm229.6 7.1c-.3.5-1 .7-1.5.3-.5-.3-.7-1-.3-1.5.3-.5 1-.7 1.5-.3.5.3.7 1 .3 1.5zM312 444c0 .5-.5 1-1.1 1-.5 0-.7-.5-.4-1 .3-.6.8-1 1.1-1 .2 0 .4.4.4 1zM5.7 452.6c-.3.3-1.2.4-1.9.1-.8-.3-.5-.6.6-.6 1.1-.1 1.7.2 1.3.5zm107 12.9c.6 1.7-2.6 4.7-3.9 3.9-.5-.3-.8-1.6-.8-3 0-1.7.5-2.4 2-2.4 1.1 0 2.3.7 2.7 1.5zM100 468c0 .5-.2 1-.4 1-.3 0-.8-.5-1.1-1-.3-.6-.1-1 .4-1 .6 0 1.1.4 1.1 1zm-.8 8c.9 1.7 2.9 3.5 4.3 4 3.1 1.2 3.2 2.7.3 3.5-1.3.4-3.5 2.1-4.9 3.7-3.2 3.8-5.6 3.1-3.6-1 1.4-2.7 1.2-5.8-.4-7.8-1.1-1.3 0-5.4 1.5-5.4.6 0 1.9 1.4 2.8 3zm164.8.6c0 1.7-2.2 1.4-2.8-.4-.2-.7.3-1.2 1.2-1.2.9 0 1.6.7 1.6 1.6zm-186-.2c0 .3-.4.8-1 1.1-.5.3-1 .1-1-.4 0-.6.5-1.1 1-1.1.6 0 1 .2 1 .4zm32 13.1c0 1.9-2.4 3-4.6 2.1-1.2-.5-1.3-.8-.2-2 1.7-2 4.8-2 4.8-.1zm8.1 1.1c1.9 5.2 2.1 10.4.3 11.1-.9.3-2.4.1-3.3-.5-.9-.7-2.6-1.6-3.9-2.2-1.9-.8-2.1-1.3-1.2-3 .6-1.2 1.8-2.4 2.6-2.7.9-.3 2-1.6 2.5-2.9 1.1-3.1 1.7-3 3 .2zM50 493.4c0 .3-.4.8-1 1.1-.5.3-1 .1-1-.4 0-.6.5-1.1 1-1.1.6 0 1 .2 1 .4zm8.4 2.2c1.1.4 1.6 1.9 1.6 4.4 0 2.1.7 5.4 1.5 7.3 2 4.8 2 8.7-.1 8.7-1.4 0-6.2-1.8-10.3-3.9-.7-.3-2.1-2.5-3-4.7-1.9-4.9-4.1-7.9-6.1-8.6-.8-.3 0-.6 1.9-.5 2.3 0 3.5.5 3.8 1.7.3 1.2 1.1 1.6 2.4 1.3 1.5-.4 1.7-.9.9-1.8-.9-1-.4-1.7 1.7-2.8 3.4-1.8 3.7-1.9 5.7-1.1zm26.6 5.9c.7.8.8 1.5.2 1.5-.5 0-1.5-.7-2.2-1.5-.7-.8-.8-1.5-.2-1.5.5 0 1.5.7 2.2 1.5zm34 13.1c0 1.4.4 2.3 1 1.9.6-.3 1-.1 1 .5 0 .8-.7.9-1.7.5s-3.1-.9-4.8-1c-1.6-.2-4.1-.8-5.5-1.4-2.5-1-2.5-1 .7-1 1.7-.1 3.5-.6 3.8-1.1.3-.6 1.7-1 3.1-1 1.9 0 2.4.5 2.4 2.6zm-99.3 13c-.3.3-1.2.4-1.9.1-.8-.3-.5-.6.6-.6 1.1-.1 1.7.2 1.3.5zm25.3.4c0 .5-.2 1-.4 1-.3 0-.8-.5-1.1-1-.3-.6-.1-1 .4-1 .6 0 1.1.4 1.1 1zm77.4 8.1c-.8.8-1.4 2-1.4 2.6 0 .6-1.6 2.3-3.5 3.7-2.7 2.1-4.1 2.5-6.2 2-3.1-.8-5.2-3-5.3-5.7 0-.9-.4-1.7-1-1.7-1.4 0-1.2-1.2.6-3.5 1.2-1.6 1.6-1.7 2.3-.6.8 1.3 3.2 1.2 7.3-.4.9-.4 1.9.4 2.7 2.1 1.1 2.6 1.3 2.6 2.9.9 1.3-1.3 1.4-1.9.5-2.2-.7-.3-1.3-1.2-1.3-2.1 0-1.3.5-1.1 2 .8 1.6 2.2 1.7 2.7.4 4.1zM24 537.4c0 1.6-1.9 2.5-3.8 1.9-1-.4-.8-.9.5-1.9 2.3-1.7 3.3-1.7 3.3 0zm52-.1c2 0 4 1.6 4 3.2 0 2.4-2.9 2.4-6.4.2-4-2.5-4.9-5.3-1.3-4.1 1.2.4 2.9.7 3.7.7zm-63 6.8c0 1.3-5.4 1.7-7.7.6-2.9-1.3-3-3.5 0-3.9 2.1-.3 7.7 2.1 7.7 3.3zm80.5-.1c1 1.6-1.9 5-5 5.9-3.1.8-8.4-.8-5.6-1.7.8-.3 3-1.5 4.9-2.8 3.8-2.6 4.8-2.9 5.7-1.4zm40.5 12c0 .5-.7.7-1.5.4-.8-.4-1.2-1-.9-1.5.6-1.1 2.4-.2 2.4 1.1zm32.8 4.7c-.2 1.1-1.4 1.9-3.1 2.1-2.2.3-2.7-.1-2.7-1.7 0-1.7.6-2.1 3.1-2.1 2.4 0 3 .4 2.7 1.7zM88.5 563c-.3.5-1 1-1.6 1-.5 0-.9-.5-.9-1 0-.6.7-1 1.6-1 .8 0 1.2.4.9 1zm14-.1c.3.5.1 1.2-.5 1.6-.5.3-1-.1-1-.9 0-1.8.6-2.1 1.5-.7zm-26 1c.8 1.4-1.3 2.4-3.3 1.6-1.4-.5-1.4-.7-.2-1.5 1.9-1.2 2.7-1.2 3.5-.1zM84 565c0 .5-.7 1-1.5 1s-1.5-.5-1.5-1c0-.6.7-1 1.5-1s1.5.4 1.5 1zm36.1 3c1.3 1 2 2 1.4 2.1-5.8.8-7.5.6-7.5-1.1 0-3.5 2.6-4 6.1-1zm48.5 2.5c.8 4.7-1.7 10.1-5.1 10.7-3.1.6-3.5-2.1-.5-2.9 1.1-.3 2-.8 2-1.2 0-.4-.9-1.3-2-2.1s-2-2.1-2-2.8c0-1.2.3-1.2 1.5-.2 1.9 1.6 3.5.4 3.5-2.6 0-3.6 1.8-2.9 2.6 1.1zM87.5 572c1.9.8 1.9.9-.2.9-1.4.1-2.8 1.2-3.8 3.1-1.7 3.3-3.6 3.8-5.6 1.4-1-1.3-1-1.7.2-2.5.8-.5 1.9-.9 2.5-.9.6 0 1.7-.7 2.4-1.5 1.4-1.7 1.7-1.7 4.5-.5zm52.5.6c0 .9-3.2 3.3-4.4 3.4-.5 0-.1-.9 1-1.9 1.9-2 3.4-2.6 3.4-1.5zm-78 1.9c1 1.2 1 1.9.2 2.7-.9.9-1.6.7-2.7-.8-.8-1-1.5-2.2-1.5-2.7 0-1.3 2.7-.7 4 .8zm11.4 1.2c-.5.5-1.2 1.2-1.6 1.8-.4.6-.8.2-.8-.8 0-.9.7-1.7 1.7-1.7.9 0 1.2.3.7.7zm-32.9 1.5c.4.3-.3 1.2-1.5 1.8-1.6.9-2.5.9-3.6 0-.7-.7-1.2-1.5-1-1.9.6-.9 5.2-.8 6.1.1zm118.2-.6c-.3.3-1.2.4-1.9.1-.8-.3-.5-.6.6-.6 1.1-.1 1.7.2 1.3.5zm-66.9 6.9c-.6 1.4-1.7 2.5-2.4 2.5-.6 0-1.4.7-1.8 1.5-.6 1.7-3.2 2-4.2.4-.9-1.6 4.6-6.9 7.3-6.9 2 0 2.2.2 1.1 2.5zm40.7-1.5c1 1.6-1.4 5-3 4.4-1.8-.7-2-4-.2-4.7 1.9-.8 2.5-.8 3.2.3zm-66.8 3.7c2.8 2.9 7.3 3.1 8 .3.3-1.1 1-2 1.7-2 .6 0 1.7.9 2.4 2 1.1 1.8 1 2-1.3 2-2.1 0-2.5.5-2.5 2.9 0 1.7-.5 3.3-1.2 3.7-1 .7-3.2-1.4-4.1-4-.3-.7-1.3-.3-2.6.9-1.9 1.6-2.4 1.7-3.1.5-.6-.8-1-1.9-1-2.4 0-1.9-3.4-4.6-5.9-4.7-2.4 0-2.3-.1.9-1.3 4.1-1.4 5.7-1.1 8.7 2.1zm48.8-.7c-.4.6-1 .8-1.5.5-2.1-1.3-1.7 1.5.5 3.9 1.3 1.4 2 2.8 1.6 3-1.1.7-9.5-2-12.5-3.9-3.2-2.1-2.7-3.2 1.5-3.3 1.7 0 3.4-.3 3.7-.6 1-1.1 7.3-.6 6.7.4zm33.2 5.9c.1 2.5-.2 3.1-1.5 2.9-1.8-.4-2.7-3-1.8-5.4 1-2.6 3.1-.9 3.3 2.5zm-95.7-.4c0 2.3-.2 2.4-2 1.3-1.1-.7-2-1.8-2-2.5s.9-1.3 2-1.3c1.5 0 2 .7 2 2.5zm29 3.1c0 .8-.4 1.2-1 .9-.5-.3-1-1-1-1.6 0-.5.5-.9 1-.9.6 0 1 .7 1 1.6zm-5 3.4c0 .5-.2 1-.4 1-.3 0-.8-.5-1.1-1-.3-.6-.1-1 .4-1 .6 0 1.1.4 1.1 1z"/><path d="M469.3 336.3c-2.8 4.2-3.8 6.7-2.5 6.7 1.1 0 4.5-4.4 5.5-7.2 1.1-3.1-.8-2.7-3 .5zM445.7 358.6c-.4.4-.4 1-.1 1.5.6 1 3.4 0 3.4-1.2 0-1-2.4-1.2-3.3-.3zM53.5 511c.3.5 1.2.7 2 .3 2.1-.7 1.9-1.3-.6-1.3-1.1 0-1.8.4-1.4 1zM425 97c0 .5.5 1 1 1 .6 0 1-.5 1-1 0-.6-.4-1-1-1-.5 0-1 .4-1 1zM417 118.9c-.5 1.1-1 2.7-1 3.5 0 2-2.8 3.5-5.4 2.8-1.9-.5-1.9-.4-.7 1.1.7.9 1.7 1.4 2.2 1.1.5-.3.9-.2.8.3-.4 1.5 1.3 4.3 2.6 4.3 1.4 0 2.5-2.2 2.5-5.2 0-1.1.8-2.2 2-2.5 2.1-.6 2.3-1.4 1.4-5.1-.8-2.7-3-2.9-4.4-.3zM424.6 122.9c-.3.5.1 1.1.9 1.5.8.3 1.5.1 1.5-.4 0-1.3-1.8-2.2-2.4-1.1zM595.6 135.9c-.4.7-.5 1.5-.2 1.8.9.9 1.9-.4 1.4-1.8-.4-1.1-.6-1.1-1.2 0zM409.5 145c-.7 1.2.2 3 1.6 3 .5 0 .9-.9.9-2 0-2.1-1.5-2.7-2.5-1zM404 164.5c0 .8.5 1.5 1 1.5.6 0 1-.7 1-1.5s-.4-1.5-1-1.5c-.5 0-1 .7-1 1.5zM391.6 177.7c-.6 1.4-.5 1.5.5.6.7-.7 1-1.5.7-1.8-.3-.3-.9.2-1.2 1.2zM223 179.6c-15.1 1.3-18.2 1.8-22.6 4-3.8 1.9-6.7 2.6-11.3 2.6-4.4.1-6.4.5-6.8 1.5-.3.8-1.3 1.3-2.2 1.1-2.3-.4-4.1 1-4.1 3.3 0 3.3-4.5 2.5-6-1.2-.8-1.8-1.6-2.7-2.2-2.1-1.7 1.7 2.2 14.2 6.3 20.1 3.1 4.5 3.9 6.5 3.9 10.1 0 2.5.8 6.1 1.8 8 2.6 5.2 7.4 12 8.2 12 .5 0 3.1 2.9 6 6.4 2.9 3.5 6.3 6.7 7.6 7 1.4.4 5.5 2 9.1 3.7 6.5 3 6.7 3 10.8 1.5 2.2-.9 4.8-1.6 5.7-1.6.9 0 1.8-.7 2.2-1.5.6-1.7 6-1.3 13.4 1.1 2.4.8 7.8 1.7 12 2 4.2.3 8.2 1 8.7 1.4.6.5 2.1.1 3.5-1s3.5-2 4.8-2c1.2 0 2.2-.5 2.2-1 0-.6-.8-1-1.7-1-1.3 0-1.4-.3-.5-1.2 1-1 1.9-1 4.5 0 3 1.2 3.4 1.1 5.2-1.3 1.2-1.4 2.6-2.5 3.2-2.5.6 0 1.3-.5 1.5-1.1.3-.9 1-.9 2.3-.2 2.5 1.3 12.7.7 18.5-1.1 2.5-.8 6.9-2 9.8-2.6 2.8-.7 5.5-1.6 5.8-2.1.3-.6-1.3-1.7-3.5-2.6-4.5-1.7-4.5-3.3-.2-3.3 3.1 0 10.8-2.9 7.9-3-.9 0-2-.5-2.4-1.1-.4-.7 0-.9 1.4-.5 4.1 1.3 2.8-8.4-1.4-10.1-.7-.3-1.4-1.6-1.4-2.9 0-1.3-.6-2.4-1.2-2.4-1.4-.1-6.8-4.5-6.8-5.6 0-.4.7-1.2 1.7-1.9 2-1.5.8-3.9-1.6-3-.9.4-2.1.8-2.8.9-.7.1-1.6.5-1.9.9-1.2 1.2-2.4.8-2.4-.7 0-.8.5-1.6 1.2-1.8 2.1-.7-2.2-5.8-4.9-5.8-1.8 0-2.4-.5-2.1-1.8.3-1.8-2.3-2.8-13.9-5.3-2.9-.7-5.3-1.5-5.3-1.9 0-1.4-8-5-12.3-5.5-6.7-.7-10.1-1.7-12-3.3-1-.9-3.9-1.7-6.5-1.8-2.6-.1-6.3-.4-8.2-.7-1.9-.3-11.4.1-21 .9zm42 25.4c0 .6 2.5.8 6.9.4 6.3-.6 7.3-.4 12.7 2.3 3.3 1.7 7.5 3 9.4 3.1 2.5.1 4 .8 5.3 2.6 1 1.4 2.7 2.6 3.7 2.6 2.3 0 4.4 2.6 3.6 4.5-.4 1.2-2.4 1.5-9 1.5-8 0-8.7-.2-10.2-2.5-.9-1.4-2.5-2.4-3.8-2.4-4.5 0-12.7-2.4-12.2-3.7.4-.9-.8-1.1-4.7-.7-5.8.5-13.8-1.9-10.4-3.2 2.1-.9 2.3-2.5.2-2.5-2.3 0-1.8-1.8.8-2.3 4.3-.8 7.7-.7 7.7.3zm-2.2 28.5c.3 1.9-.2 3.3-1.4 4.2-1.4 1-1.5 1.5-.5 2.7 1.9 2.2.5 3.6-3.7 3.7-6 0-18.6 2.6-19 3.8-.6 1.8-4.2 1.3-4.2-.7 0-3.2 10.5-12.8 15-13.8 1.4-.3 3.4-.9 4.5-1.4 6.5-2.8 8.9-2.4 9.3 1.5zm8.6-.4c2.4 1.1 4.2 5.1 3.1 6.9-.3.5-2.5.8-4.8.7-3.9-.3-4.2-.5-4-3.2.4-5.7 1.3-6.4 5.7-4.4zm-3.7 10.5c-.3.3-1.2.4-1.9.1-.8-.3-.5-.6.6-.6 1.1-.1 1.7.2 1.3.5zm17.1 2.5c-1.7 1-2.8.2-2.1-1.7.4-1.1.8-1.2 2-.3 1.1 1 1.1 1.4.1 2zm-9.8-.1c0 .5-.7 1-1.5 1s-1.5-.5-1.5-1c0-.6.7-1 1.5-1s1.5.4 1.5 1z"/><path d="M249.8 235.5c-.2.3-.3 1.8 0 3.5.4 3.1 2.8 4 4.9 1.9.9-.9.8-1.8-.4-3.5-1.4-2.2-3.3-3-4.5-1.9zM3.2 180.8l-3.2.3v65.8l5.3 1c11.8 2.2 21.4 3.4 30.7 3.6 21.1.5 21 .4 22.6 2.4.9 1 2.4 1.6 3.4 1.4 1-.3 3.2.3 5 1.2 2 1 4.4 1.5 6.1 1.1 1.5-.3 4.4.1 6.4.9 3.3 1.5 3.7 1.4 7.7-1.1 3.8-2.4 4.2-2.5 5.4-1 .7 1 2 1.6 3 1.4 1.9-.3 3 2.7 4.2 11.6.8 5.8 4.9 9.9 8 8 .9-.6 5.6-1 10.3-.9 6.9.2 9.4.6 12.4 2.3 2 1.2 4.2 2.2 5 2.2 2.7 0 7.2-6.7 9-13.6 1-3.8 2.4-7.9 3.1-9.1.8-1.2 1.4-2.6 1.4-3.1s2-4.3 4.4-8.5c2.4-4.2 4.6-9.3 4.9-11.3.3-1.9 1.5-5.4 2.6-7.7 1.8-3.7 1.9-4.6.8-7.8-.7-2-1.7-4.3-2.3-5-.5-.8-1.6-3.2-2.3-5.4-2.3-7.1-7.5-16.5-9.5-17.1-1.3-.4-2.4.1-3.6 1.5-2.7 3.7-19 4.8-27 1.9-2.5-.9-7.3-1.9-10.6-2.2-3.5-.3-7.7-1.4-9.6-2.6-3-1.8-4.9-2-15.1-1.7-6.4.2-11.7-.1-11.7-.5 0-.8-1.9-1.7-6.8-3.3-2.1-.6-2.3-.4-2.2 1.7.4 3.6-1.1 8.9-2.6 9.5-.8.3-2.2.2-3.1-.2-1.7-.6-1.7-.7-.2-1.9 2.2-1.5.4-4.2-3.4-5.1-3.5-.9-3.8-5.1-.4-5.8 2-.4 2-.4-.4-.6-1.4 0-3.5.8-4.8 2l-2.2 2.1-2.3-2.1c-2.8-2.6-4.3-2.6-6.5 0-1.8 2.3-3.6 2.5-12.6 1.2l-6-.8 4.3-1.4c6.7-2.2 4.6-3.6-5.4-3.6-4.9 0-10.4.1-12.2.3zM48 192.2c0 3.1-1.4 5.8-3.6 7.3-2.2 1.4-2.6 1.4-3.9.1-1.3-1.3-1.3-1.5.4-2.1 1.1-.3 2.2-1.9 2.6-3.5.5-2.1 1.3-3 2.6-3 1 0 1.9.6 1.9 1.2zM12.1 195c1.5 1.7 2.1 1.8 5 .8 2.5-.9 3.4-.8 3.7 0 .2.7 1.8 1.2 3.5 1.2 1.8 0 4 .7 5 1.5 1.1.7 2.5 1.1 3.2.9.7-.3 2.1.3 3.1 1.3 1.7 1.7 1.7 1.8-.4 2.1-1.1.2-3-.2-4.1-.7-1.1-.6-2.9-1.1-4.1-1.1-1.2 0-3.3-.8-4.6-1.9-2-1.5-3.5-1.8-8.8-1.4-4.1.4-6.6.2-7-.6-.4-.6-1.6-1.1-2.7-1.1-2.1 0-2.2-.1-1.3-2.5.9-2.3 7.3-1.3 9.5 1.5zm40.9 1.4c0 .3-.4.8-1 1.1-.5.3-1 .1-1-.4 0-.6.5-1.1 1-1.1.6 0 1 .2 1 .4zm15 4.2c0 .2-1.2.4-2.7.4-2.1 0-2.4-.3-1.4-.9 1.3-.8 4.1-.5 4.1.5zm23.4-.6c2.6.9 3.5 3.4 1.7 4.5-.6.3-2.8.3-5-.1-3.5-.6-4.1-1-4.1-3 0-1.9.5-2.4 2.4-2.4 1.4 0 3.6.4 5 1zm-10.3 5.2c.8.7 2.2 2.2 2.9 3.2 1.4 1.8 1.3 1.9-2.5 1.2-4.8-.8-9.5-2.6-9.5-3.6 0-2.3 6.6-2.8 9.1-.8zm-59.3.5c-1 .2-2.6.2-3.5 0-1-.3-.2-.5 1.7-.5s2.7.2 1.8.5zM13.5 229c.3.5-.3 1-1.4 1-1.2 0-2.1-.5-2.1-1 0-.6.6-1 1.4-1 .8 0 1.8.4 2.1 1zm92.5 1.9c-1.4 2.6-3 2.7-3 .2 0-1.1.8-2.1 1.8-2.3 2.4-.6 2.5-.3 1.2 2.1zm-81.3.7c-.3.3-1.2.4-1.9.1-.8-.3-.5-.6.6-.6 1.1-.1 1.7.2 1.3.5zm18.1 3.9c-.3.3-1.3.2-2.2-.1-1.4-.5-1.5-.9-.4-1.5 1.3-.8 3.6.6 2.6 1.6zM83 182.5c0 .8.5 1.5 1 1.5.6 0 1-.7 1-1.5s-.4-1.5-1-1.5c-.5 0-1 .7-1 1.5zM77.5 183c-.4.6.5 1 2 1s2.4-.4 2-1c-.3-.6-1.2-1-2-1s-1.7.4-2 1zM372.8 193.2c.9.9 1.5.9 2.4 0 .9-.9.7-1.2-1.2-1.2s-2.1.3-1.2 1.2zM331 204c0 .5.5 1 1.1 1 .5 0 .7-.5.4-1-.3-.6-.8-1-1.1-1-.2 0-.4.4-.4 1zM324 206.9c0 3.3 1.1 5.1 3.1 5.1 2.4 0 2.4-2.3.2-5-2.2-2.5-3.3-2.5-3.3-.1zM336 213.6c0 .9.5 1.4 1.2 1.2 1.8-.6 2.1-2.8.4-2.8-.9 0-1.6.7-1.6 1.6zM329 225.6c0 1.4.3 1.4 1.5.4.8-.7 1.5-1.4 1.5-1.6 0-.2-.7-.4-1.5-.4s-1.5.7-1.5 1.6zM379 246.9c0 2.2.4 3.1 1.3 2.8 1.3-.4 1.1-3.6-.4-5.2-.5-.5-.9.4-.9 2.4zM384.2 246.2c.2 1.2 1 2.3 1.8 2.3 2.2 0 1.9-3.9-.3-4.3-1.5-.3-1.8.1-1.5 2zM358.8 253.5c-2 2.7-2.3 4.5-.7 4.5 1.5 0 3.9-2.6 3.9-4.4 0-2.5-1.4-2.5-3.2-.1zM386.4 258.5c-.7 1.8 1.4 4.7 2.7 3.9.5-.3.9-1.6.9-3 0-2.7-2.7-3.4-3.6-.9zM0 264.7v6.8l4.4 2.7c2.4 1.6 5.7 2.8 7.3 2.8 2.3 0 3.3.6 4.2 2.7 1.1 2.4 1 2.9-.9 4.5-1.2 1-2.5 1.8-2.9 1.8-1.3 0-4.6-2.9-3.3-3 1.4 0 1.6-3.6.2-4.5-.5-.3-1 .1-1 .9 0 1.4-.8 1.8-3 1.8-.3 0-1.5-.3-2.8-.7l-2.2-.6v32.3l7-.7c5.3-.5 7.5-.4 8.8.6 1.5 1.3 1.6 1.2.3-.3-.7-1-1-2.5-.7-3.4.5-1.3 1.8-1.5 7.4-1.1 3.7.2 7.6.7 8.7 1 1.1.3 2.3.6 2.8.6.4.1 1.6 1 2.8 2.2 2 2 2.2 2 6 .5 5.2-2.1 5-2.1 7.8 1.9 2.7 3.9 5.5 4.5 7.1 1.4.9-1.7.8-2.3-.7-3.5-1.6-1.2-1.3-1.3 2.7-.8 2.5.4 5.3 1.1 6.2 1.5.9.5 2.4.6 3.3.3 1-.4 2.6.3 4.3 1.9 3.9 3.6 6.4 4.1 9.2 1.7 2.5-2.1 3.5-2.6 2.6-1.1-.9 1.4 1.6 1.9 4.3.9 1.7-.6 2.8-.4 4.1.7 1.5 1.4 1.8.7 3.2-9.3 1.7-11 1.2-14-2-12.7-.8.3-4.7-.4-8.8-1.5-4.4-1.3-8.4-1.8-10.1-1.4l-2.8.7 2.5-2.4 2.5-2.4-3.4-.3c-1.9-.2-4.4-.1-5.7.2-2.7.7-3.3 2.6-.8 2.6.8 0 1.2.4.9 1-.3.5-2.2 1-4.1 1-1.9 0-3.4-.5-3.4-1 0-.6.7-1 1.6-1 .9 0 1.4-.6 1.2-1.3-.8-2.2-4.3-1.4-4.6 1-.2 1.5-1 2.3-2.3 2.3-2.1 0-2.5-1-.8-2.7 1.6-1.6.4-3-3.3-3.8-4.3-1-6.7-3.3-4.7-4.6 2.3-1.4 20.9-1 25.4.6 6.8 2.5 10.3 1.8 8.5-1.5-1.5-2.8-9.7-4.2-12.7-2.3-2.1 1.4-2.6 1.4-5-.3-2.1-1.4-4.6-1.8-10.3-1.7-4.1.1-8.5.5-9.8.9-1.7.5-2.2.3-2-.7.2-.9-.6-1.4-2.2-1.5-6-.1-6.8 2.6-1.5 5.7 1.9 1.2 3.5 2.5 3.5 3 0 1.5-6.9 1-9.5-.7-1.4-.9-3.6-1.4-4.9-1.2-1.8.4-2.6 0-2.9-1.3-.3-1.1-1.3-2.2-2.4-2.5-1-.4-2.7-1.5-3.8-2.4-1.1-1-4-2-6.5-2.3-4.5-.6-8.6-3.9-7.4-5.9.3-.5 1.2-.1 1.8.8.8 1 1.8 1.4 2.5.9.9-.5.7-1.3-.9-3-1.2-1.3-1.8-2.8-1.4-3.8.6-1.7.1-2-4.8-3.1L0 258v6.7zm19.2 21.8c0 .5-.5 1.1-1.1 1.3-.6.2-1.1-.4-1.1-1.3s.5-1.5 1.1-1.3c.6.2 1.1.8 1.1 1.3zm33.6 1.1c3.2.9 2.7 2.4-.8 2.4-2 0-3-.5-3-1.5 0-1.7.4-1.8 3.8-.9z"/><path d="M43 259.9c0 2.7-2.8 3-7.1.9-3.5-1.8-8.9-1.7-8.9.2 0 1.2 4.8 4 6.9 4 1.1 0 2.3.5 2.7 1.1.3.6 1.9.9 3.5.5 2-.4 3.1-.1 3.8 1.2.9 1.5 1.2 1.5 2.2.2.8-1.1 1.2-1.2 1.6-.3.8 2.2 5.9 1.5 7.5-.9 1.2-1.9 1.8-2 3-1.1 2.4 2 5.2-.6 4-3.7l-.9-2.5-.8 2.4c-.7 2.2-1.1 2.3-6.4 1.8-3.6-.4-6.2-.2-6.9.5-.8.8-1.2.1-1.7-2.6-.8-3.8-2.5-5-2.5-1.7zM20 260c0 .5.9 1 2.1 1 1.1 0 1.7-.5 1.4-1-.3-.6-1.3-1-2.1-1s-1.4.4-1.4 1zM76.2 264.6c-.7.8-2.4 1.4-3.9 1.4-2.9 0-9.3 3.6-9.3 5.2 0 .7 1.4.8 3.5.5 2.4-.4 4-.1 4.9.9 1.3 1.2 2.3 1.3 6.1.3 3.9-1 4.5-1.5 4.5-3.8-.1-3.5-3.9-6.5-5.8-4.5zM384 268.4c0 2.8 2.4 4.6 4.1 2.9.6-.6 0-1.8-1.6-3.3l-2.5-2.3v2.7zM28.3 276.1c1.4.8 2.2.8 3 0 .8-.8.3-1.1-1.8-1.1-2.6.1-2.8.2-1.2 1.1zM98.5 280.9c-.3.5-.1 1.2.5 1.6.5.3 1-.1 1-.9 0-1.8-.6-2.1-1.5-.7zM190 294.9c0 .5.3 1.7.6 2.6.5 1.2.9 1.4 1.4.4.5-.7.6-1.8.3-2.6-.6-1.5-2.3-1.8-2.3-.4z"/><path d="M195.4 298.4c-.3.8.3 2.3 1.4 3.4 1.3 1.3 1.8 2.8 1.5 4.5-.4 1.8.3 3.7 2.2 6.1 1.7 2.2 2.8 5.1 3.1 7.8.1 2.4.6 6.2 1 8.5.7 4.8.3 5.1-3.4 2.4-1.5-1-4.4-1.9-6.6-1.9-2.1-.1-6.6-1.3-10-2.6-3.4-1.4-8.9-2.9-12.2-3.5-3.6-.5-7.9-2.1-11-4.1-2.8-1.7-7.9-3.8-11.3-4.6-6.1-1.4-6.3-1.4-10.5 1.1-4.5 2.6-8.8 3.1-16.4 1.6-5.7-1.1-6.6.6-5.9 11 .4 5.9 1.3 9.3 3.7 14.4 2 4.2 2.8 7 2.2 7.4-.6.3-1.2 2.9-1.3 5.6-.3 4.7-.2 5 2.2 5.3 1.9.2 3.6-.6 5.7-2.7 1.7-1.7 3.3-3.1 3.6-3.1 1.1 0 .6 3.2-1.8 11.4-4.4 14.5-4.6 16.6-1.8 20.3 1.4 1.9 3.3 3.3 4.5 3.3 1.8 0 1.6.3-1.1 3-1.8 1.7-3.8 3-4.5 3-2.5 0-7.7 6.1-7.7 9 0 1.6-.7 3-1.6 3.4-1.1.4-1.4 1.4-.9 3.4.4 2.1.1 3.3-1.4 4.6-2.3 2.1-3.7 7.4-2.4 8.7 1.1 1.1 7 1.5 9.8.6 2.9-.9 5.8 1.8 6.2 5.6.1 1.7-.5 8.1-1.3 14.2-1.7 11.5-1.4 16.7.9 19.4.8.9 1.7 2.8 2.1 4.2.4 1.8 1.5 2.9 3.3 3.4 2.2.5 3.1.1 5.2-2.7 4.8-6.3 8-8.5 15.8-11.1 7.5-2.5 22.4-4 24-2.4.3.4 1.5.7 2.5.7s3 .7 4.3 1.6c1.6 1.1 2.9 1.3 4.1.6 1.4-.8 1.2-1.2-1.6-3.2-1.8-1.3-4.9-2.4-6.9-2.5-2.3-.2-3.7-.8-3.9-1.8-.5-2.5 1.6-5.5 4-5.9 1.9-.2 2.2-.8 2-3.2-.3-2.4 0-2.8 1.7-2.3 2.7.7 3.2-1.3 1-3.7-1.2-1.2-2.6-1.7-4.3-1.4-1.7.3-3.1-.1-4.2-1.3-1-1.1-3-1.9-4.7-1.9-1.6 0-5.5-.6-8.6-1.4-3.5-.9-10.8-1.4-19.4-1.4-7.6 0-14-.2-14.3-.5-.9-.9.5-4.3 3-7 1.3-1.4 2.6-3.1 2.9-4 .3-.8 1.6-1.7 2.9-2 1.3-.3 4.1-1 6.2-1.6 2.2-.5 8.3-1.1 13.5-1.2 5.3-.1 11.6-.6 14-1.1 2.9-.6 6.1-.5 9 .2 2.5.6 8 1.7 12.1 2.5s9.4 2.3 11.6 3.4c4 1.9 21.3 3.8 33.9 3.6 4 0 4 0 4.2-4 .2-2.2-.3-4.7-1-5.5-1.9-2.3-8.7-7.4-13.4-9.9-3.5-2-4.6-2.2-7.3-1.2-1.8.6-3.6.8-4.1.5-.5-.3-1.9 0-3.1.7-2.5 1.4-8.9 1.4-11.6 0-4.4-2.3-34.2-9.4-38.7-9.3-1.1.1-5.4.6-9.4 1.1-7.8 1.1-15.1.2-17.9-2.2-1.2-1-1.1-1.3.9-1.8 1.3-.4 3.8-.7 5.5-.8 4.6-.1 14.7-7 16.8-11.5 2.3-4.8 5.2-6.5 12.8-7.7 3.5-.5 9.5-1.4 13.5-1.9 8.2-1.2 15.2-4.7 18.4-9.2 1.4-2 2.8-6.7 4.1-14.5l2-11.5-2.3-2.4c-1.5-1.6-2.3-3.8-2.4-6.2-.1-2-.6-4.6-1.2-5.7-.9-1.5-.8-2.3.2-3.5 1.1-1.3 1.2-2.5.2-7-1.2-5.2-1.5-5.6-6.5-8.3-4.2-2.2-5.4-2.5-5.8-1.3zM574.6 306.5c-.3.9-.6 2.5-.6 3.6 0 1.9.9 2.1 10.2 2.3 1.4.1 3 .4 3.4.8 1.1 1.1 2.4 1 2.4-.2 0-.6-.6-1-1.3-1-.7 0-2.7-1.3-4.4-2.9-4-3.6-8.8-4.9-9.7-2.6zM594 312.3c0 .8-.9 2.2-2 3.2s-2 2.6-2 3.6c0 2.3 5.5 4.2 8.1 2.8 2.6-1.3 2.4-2.4-.7-3.8-3.2-1.4-2.9-4.8.4-4.3 1.5.2 2.2-.2 2.2-1.2 0-1.1-.9-1.6-3-1.6-1.8 0-3 .5-3 1.3zM21 312.7c1.4.3 2.9.9 3.5 1.4 1.5 1.4 4.5 1 4.5-.6 0-1.2-1.2-1.5-5.2-1.4-2.9.1-4.2.4-2.8.6zM514 314.9c0 1.1.4 2.2.9 2.5 1.1.7 2.3-2.2 1.5-3.5-.9-1.6-2.4-1-2.4 1zM341.1 315.9c-1.5 2.7-1.4 3.1.9 3.1 1.3 0 2-.7 2-1.9 0-2.8-1.7-3.5-2.9-1.2zM89.5 318c.3.5 1 1 1.6 1 .5 0 .9-.5.9-1 0-.6-.7-1-1.6-1-.8 0-1.2.4-.9 1zM71.7 321c-2.3 2.7-2.2 3 1.4 3 2.6 0 3-.3 2.7-2.2-.4-2.9-2-3.2-4.1-.8zM58.2 322.7c.2 1 1.8 2.1 3.6 2.7 5.7 1.6 3.7 5.7-2.9 5.6-2.4 0-7.8 0-11.9.1-4.1 0-9-.3-10.8-.6-2.6-.6-4-.3-6 1.2-1.5 1.1-3.5 2.2-4.4 2.6-1 .3-1.8 1.1-1.8 1.7 0 1.4 4.7 1.2 9-.3 2.3-.8 8.3-1.2 17.7-1 13.2.2 14.3.1 15.3-1.7 1.3-2.4 1.3-7 0-7-.5 0-1-.7-1-1.5 0-1.6-3-3.5-5.5-3.5-1 0-1.5.7-1.3 1.7zM90.8 324.7c.7.3 1.6.2 1.9-.1.4-.3-.2-.6-1.3-.5-1.1 0-1.4.3-.6.6zM0 327.6c0 2.8.2 2.9 4.6 3.1 2.6.1 5.1.6 5.7 1.2 1.8 1.8 2.9 1.3 2.5-1.1-.3-2.5-3.9-4.6-9.3-5.5-3.3-.5-3.5-.4-3.5 2.3zM69 335.5c-1 1.2-.7 1.5 1.4 2 1.4.3 3.7.7 5.1 1 2 .4 2.5.1 2.5-1.4 0-1.3-.9-2-3.1-2.5-4.3-.8-4.5-.8-5.9.9zM91.3 334.7c-2.3.9-1.4 3.3 1.2 3.3 1.8 0 2.5-.5 2.5-2 0-1.9-1.2-2.4-3.7-1.3zM84 340.1c0 .5.5.7 1 .4.6-.3 1-.8 1-1.1 0-.2-.4-.4-1-.4-.5 0-1 .5-1 1.1zM55.2 342.9c1.3 2.2 2.8 2.8 2.8 1.1 0-.5-.9-1.4-2-2-1.9-1-2-1-.8.9zM1.3 342.7c-.7.2-1.3 1.3-1.3 2.4 0 2.1 5.1 4 5.8 2.1.2-.7 1-1.2 1.8-1.2 1.9 0 1.8-2.6-.2-3.4-1.8-.7-4.3-.7-6.1.1zM24.8 346c-2.6.5-5.2 1.1-5.9 1.5-2 1.3 1.3 2.5 6.4 2.3 2.6-.1 5.2.3 5.8.9.7.7 2.1.5 4.5-.6 4.1-1.8 4.3-2.7.7-3.4-1.6-.3-3.7-.7-4.8-1-1.1-.3-4.1-.1-6.7.3zM6.3 349.6c-1.6 4.2 4 7.1 5.9 3 1.3-3 1.2-3.1-2.5-4-2-.5-2.9-.2-3.4 1zM87 352c0 .5.5 1 1 1 .6 0 1-.5 1-1 0-.6-.4-1-1-1-.5 0-1 .4-1 1zM83 353.6c0 1.1 3.4 3.3 4.9 3.4 1.1 0 1-.5-.4-2-1.7-1.9-4.5-2.7-4.5-1.4zM56 356.4c0 .9.5 1.6 1 1.6.6 0 1-.4 1-.9 0-.6-.4-1.3-1-1.6-.5-.3-1 .1-1 .9zM491.8 359.4c-2.3 1.7-2.3 2.6.1 2.6 3.3 0 3.6 2.2.7 4.7-1.9 1.6-2.5 2.9-2.1 4.3.7 2.1 1.4 2.4 5.3 2 1.3-.1 2.9.4 3.7 1 .8.6 1.6.7 1.9.2.3-.5-1.2-2.2-3.4-3.7-4.1-2.9-5-3.8-2.7-2.9.8.3 2.6 0 4.1-.6 2.5-.9 2.8-.8 3.8 2 1.2 3.7 3.4 3.9 5 .5 1.2-2.6 2.3-3.1 3.3-1.6.3.5 2.1.7 4 .4 2.5-.4 3.6-.2 4 .9.3.8 2.5 2.1 4.8 2.8 5.8 1.7 7.1 2.5 7.5 4.3.3 1.6-4.7 3.6-9.8 3.8-2.1.1-2 .2.9 1.1 2.6.7 3.1 1.2 2 1.9-.8.5-2.4.9-3.6.9-2.5 0-3.1 1.5-1 2.3.8.3 4.4.8 8 1.2 6.5.7 8 .2 5.6-2.2-.7-.7-.7-1.7-.1-2.9.6-1.1 1.3-2.7 1.6-3.6.2-.9 1.5-1.8 2.8-2 3.3-.4 3.1-4.2-.2-4.6-1.4-.2-2.8-.9-3.2-1.6-.4-.7-2.5-1.8-4.8-2.6-3.1-1-4-1.8-4-3.6 0-3-1.8-3.9-10.7-5.4-7.4-1.2-9.3-.9-9.3 1.4 0 .8-1.6 1.6-3.7 2-5.8.9-6.3.8-6.3-1.9s-1.6-3.2-4.2-1.1zm17.6 4.7c-.8 1.4-2.4 1-2.4-.6 0-.9.6-1.2 1.5-.9.8.4 1.2 1 .9 1.5z"/><path d="M119.3 369.5c-.3.9-.2 1.9.1 2.3.8.8 3.8-1 4.4-2.6.6-1.8-3.8-1.4-4.5.3zM475 368.4c0 .9 3 1.4 3.5.6.4-.6-.3-1-1.4-1-1.2 0-2.1.2-2.1.4zM546.5 372.9c-.9 1.6 1.3 2.3 3.5 1.1 1.1-.6 2-1.3 2-1.5 0-.9-4.9-.5-5.5.4zM516.5 380c-.3.5.1 1 .9 1 .9 0 1.6-.5 1.6-1 0-.6-.4-1-.9-1-.6 0-1.3.4-1.6 1zM539.4 381.9c-1.4 1.5.4 2.1 6.1 2.1 4.6 0 6.5-.4 6.5-1.3s-1.8-1.3-6.1-1.2c-3.3 0-6.3.2-6.5.4zM325 384.4c0 1.9.4 2.3 2 1.9 2.3-.6 2.5-1.4.8-3.1-1.8-1.8-2.8-1.4-2.8 1.2zM288.5 393c-1 1.1-1.6 2.3-1.3 2.6.9.8 4.8-1.9 4.8-3.3 0-1.9-1.4-1.6-3.5.7zM474.5 393c.3.5 1.3 1 2.1 1s1.4-.5 1.4-1c0-.6-.9-1-2.1-1-1.1 0-1.7.4-1.4 1zM312 397.9c0 1.2.6 2.1 1.6 2.1.9 0 1.4-.7 1.2-1.7-.5-2.5-2.8-2.8-2.8-.4zM269 401.5c0 .8.5 1.5 1 1.5.6 0 1-.7 1-1.5s-.4-1.5-1-1.5c-.5 0-1 .7-1 1.5zM523.3 403.1c-2.2.7-3.1 1.4-2.7 2.4.4.9 0 1.5-1 1.5-1.7 0-1.9.8-1.7 5 .2 2.4.1 2.4-1.3.6-1.3-1.6-1.8-1.7-3.1-.6-3.6 3 .6 8 6.8 8 1.3 0 3.6 1.1 5.1 2.5 1.5 1.4 3.7 2.5 5 2.5 1.3 0 3.1 1.1 4.2 2.5 1.9 2.5 4.8 3.3 5.8 1.6.8-1.2 11.2-.4 10.9.9-.2.5-.4 1.6-.5 2.2-.2.8.9 1.4 2.5 1.6 2 .2 3.5 1.4 4.8 3.7 2.7 4.4 4.7 5.1 5.9 2 .5-1.4 1.6-2.8 2.4-3.1.7-.3 1.2-1.3.9-2.3-.3-1.2.8-2.8 3.2-4.8l3.7-3.1-2.3-1.6c-1.3-.9-3.4-1.6-4.6-1.6-1.8 0-2.3.6-2.3 2.6s-.4 2.5-1.6 2c-.9-.3-3.3-.6-5.5-.6-4.5 0-4.6-.6-1.9-6.2 2.4-5.1 1.8-7.8-1.7-7.8-1.7 0-2.7-.7-3-2-.3-1.2-1.7-2.2-3.2-2.6-1.4-.2-3.9-1.2-5.6-2-1.9-1-3.1-1.2-3.3-.5-.6 1.8-2.3 1.3-4.4-1.4-2.1-2.7-5.6-3.1-11.5-1.4zm8.7 15.1c1.9.9 4.3 1.9 5.3 2.2 2.2.7 3.3 3.4 1.8 4.9-.8.8-1.7.5-3.4-1.1-1.3-1.2-3-2.2-3.8-2.2-2.2-.1-4.9-2.5-4.9-4.4 0-1 .3-1.6.8-1.4.4.2 2.3 1.1 4.2 2zM315 405c0 1.3 2 1.3 4 0 1.2-.8.9-1-1.2-1-1.6 0-2.8.4-2.8 1zM595 407c0 .5 1.1 1 2.5 1s2.5-.5 2.5-1c0-.6-1.1-1-2.5-1s-2.5.4-2.5 1zM474.5 410c-.3.5.1 1 .9 1 .9 0 1.6-.5 1.6-1 0-.6-.4-1-.9-1-.6 0-1.3.4-1.6 1zM297.5 414.1c-.5 2.2-.3 3.6.9 4.7 1.1 1.1 1.6 1.2 1.7.4.1-.7.3-1.7.4-2.2.1-.6.3-1.7.4-2.5 0-.8.8-1.5 1.6-1.5s1.5-.5 1.5-1c0-.6-1.3-1-2.9-1-2.5 0-3 .5-3.6 3.1zM583 418c-.8.5-1.1 1.2-.8 1.6 1 .9 3.8-.3 3.8-1.6 0-1.2-1-1.3-3 0zM266.5 427c-.3.5.1 1 .9 1s1.8-.5 2.1-1c.3-.6-.1-1-.9-1s-1.8.4-2.1 1zM470.5 444c-.8 1.3-.9 1.2 2.8 2.8 2.7 1.1 2.8 1.1 2.5-1-.3-2.5-4.1-3.7-5.3-1.8zM208.5 448.9c.2 1.1-.3 2.2-1.1 2.5-1.7.7-1.8 3.6-.2 7.1 1.2 2.6 3.2 3.3 4.3 1.5.4-.6 2.3-1 4.3-.9 2 .1 5.1-.5 6.8-1.4 1.7-.9 3.5-1.3 3.9-.9.5.4.5.1.1-.6s-1.6-1-2.7-.7c-2.6.9-5.9-.3-5.9-2.1 0-.8-.5-1.4-1.1-1.4-.6 0-2.5-1.1-4.3-2.5-3.9-3-4.6-3.1-4.1-.6zm6.5 5.1c1.2.8 1.1 1-.7 1-1.3 0-2.3-.5-2.3-1 0-1.3 1.1-1.3 3 0zM543 453.6c0 1.2-.7 2.7-1.5 3.4-.8.7-1.5 2.1-1.5 3.1 0 1.1-.4 1.9-.8 1.9-.5 0-1.4 1.1-2 2.5-1 2.1-.8 2.8 1.4 5 1.7 1.7 3.2 2.4 4.4 2 3-1 3.3-3.5.5-5.7-3.6-2.8-3.1-4.2 2.3-5.5 3.8-.9 5-.8 6.3.3 1.4 1.3 1.8 1.2 3.3-1 2-3.1 2-3.6.1-3.6-.9 0-2.7-.8-4.1-1.7-2.1-1.3-3-1.4-4.5-.5-1.5.9-2 .8-2.8-.6-.9-1.5-1-1.5-1.1.4zM520 455c0 1.3.5 2 1.3 1.7.6-.2 1.2-1 1.2-1.7s-.6-1.5-1.2-1.8c-.8-.2-1.3.5-1.3 1.8zM451.7 459c.3 1.1 1.4 2 2.4 2 2.4 0 2.4-.9.2-2.6-2.5-1.9-3.2-1.7-2.6.6zM192 460.8c0 1 3.9 3.5 6.8 4.4 1.9.5 2.2.3 2.2-2.3 0-1.8-.4-2.8-1-2.4-.6.4-.8 1-.5 1.5.3.4-.1 1-.9 1.3-.8.3-1.6-.2-1.9-1.4-.5-1.8-4.7-2.8-4.7-1.1zM73.6 462.6c-1.1.7-1.7 1.7-1.3 2 .3.4 1.4-.1 2.3-1 2.1-2.2 1.5-2.8-1-1zM252.6 465.8c-.4 1.3-.5 2.6-.2 2.9 1 1.1 1.8-.4 1.4-2.9l-.4-2.3-.8 2.3zM220.5 467c-.3.6.1 1.3 1 1.6 1.9.8 3 0 2-1.5-.8-1.4-2.2-1.4-3-.1zM126.1 468.6c0 1.1.3 1.4.6.6.3-.7.2-1.6-.1-1.9-.3-.4-.6.2-.5 1.3zM17 473.4c0 3.1-10.3 9.6-15.1 9.6-1.5 0-1.9.7-1.9 3.5 0 3.3.3 3.6 4.5 4.7 3.2.9 4.5 1.7 4.5 3 0 1-.6 1.8-1.3 1.8-.7 0-2.4 1-3.6 2.2l-2.4 2.1 3.4 1.2c4 1.3 5.9.3 5.9-3.2 0-3.2 2.7-5.8 5.9-5.8 3 0 3.5-2.2.9-3.9-1.3-.8-2.5-.6-4.8.7l-3 1.8v-2.5c0-2.3 3.5-6.1 7.8-8.5 1.3-.7 1.4-1.2.4-2.3-.9-1.1-.9-1.7 0-2.6.9-.9.9-1.5 0-2.4-.9-.9-1.2-.8-1.2.6zM59.8 475.2c-3.8 4.4-3.8 5.9 0 3.9.9-.5 2.5-1.2 3.5-1.5 2-.6 2.4-5.6.5-5.6-.7 0-2.5 1.5-4 3.2zM207.7 473.6c-.3.3-.3 1.2 0 2 .8 2.1 4 1.7 4.6-.6.4-1.6 0-2-1.7-2-1.3 0-2.5.3-2.9.6zM470.7 475.7c-2.3 2.3 4.4 4 7.4 1.9 1.9-1.3 1.8-1.4-1.2-2-4-.8-5.4-.8-6.2.1zM562.9 476.3c-2.5.6-2.8 1.1-1.9 2.2.7.9 2.2 1.2 4 .9 1.7-.4 3.1-.1 3.5.6.6 1 .1 1.2-1.9.8-2.4-.5-2.7-.3-2.4 2.1.2 2.2.9 2.7 3.8 2.9 3.4.4 8.5 4.5 7.5 6.1-.2.5 1.4.5 3.8.1 5.3-1 7.7.2 7.7 4 0 2.8-.2 2.9-5.1 3.2-3.8.2-5.5.8-6.5 2.3-1.2 1.9-1.1 2 3.2 2.2 4.5.1 7.8 1.8 6.9 3.3-.3.4.2 1.1 1 1.4.9.3 2 1.7 2.5 3.2.9 2.2 1.3 2.4 2.6 1.3.9-.7 2.9-1.2 4.4-1.1 4.4.3 4.6-1.6.3-5.4l-3.8-3.4 3.8.6 3.7.6v-16l-4.9-1.2c-4.7-1.1-6.8-3.1-5.5-5.1.8-1.4 2.4-1.1 2.4.6 0 1.1 1.1 1.5 4 1.5 3.6 0 4-.3 4-2.4s-.5-2.4-3.2-2.4c-1.8.1-5.4-.3-7.9-.9-2.6-.6-5.5-.6-6.9-.1-1.7.6-2.8.4-4.2-.9-2-1.8-9.6-2.4-14.9-1zM576 485c0 .5-.9 1-2 1s-2-.5-2-1c0-.6.9-1 2-1s2 .4 2 1zM0 478.6c0 .8.5 1.2 1 .9.6-.3 1-1 1-1.6 0-.5-.4-.9-1-.9-.5 0-1 .7-1 1.6zM37.5 480c-1.8.7-1.9.8-.2 1.5 2 .8 4.7 0 4.7-1.5 0-1.2-1.7-1.2-4.5 0zM546 481c0 .5.7 1 1.5 1s1.5-.5 1.5-1c0-.6-.7-1-1.5-1s-1.5.4-1.5 1zM554.5 481c.3.5 1.3 1 2.1 1s1.4-.5 1.4-1c0-.6-.9-1-2.1-1-1.1 0-1.7.4-1.4 1zM461 485.8c0 1.3 3.4 4.2 4.8 4.2.7 0 2.1.6 3.2 1.2 1.5 1 2.2 1 3.1.1 1-1 .7-1.4-1.2-2.2-1.4-.5-3.1-1.6-3.8-2.5-1.4-1.7-6.1-2.2-6.1-.8zM243.3 487.6c-.9 2.3 1.1 3.8 2.6 2 1.3-1.6.7-3.6-1-3.6-.5 0-1.2.7-1.6 1.6zM522.8 487.3c-.7.8-2.5 1.2-3.8 1-1.8-.2-2.1 0-1.1.6.8.5 1.1 1.6.8 2.4-.3.9.1 2.1.9 2.8 1.3 1 1.9.8 4-1.6 1.3-1.5 2.4-3.4 2.4-4.1 0-2-1.7-2.6-3.2-1.1zM125.2 506c0 1.4.2 1.9.5 1.2.2-.6.2-1.8 0-2.5-.3-.6-.5-.1-.5 1.3zM512.1 520.5c-1.1 1.9-2.7 3.5-3.6 3.5-.8 0-1.5.4-1.5 1 0 .5.6 1 1.3 1 .7 0 1.8.9 2.5 2.1 1.9 2.9 6.8 2.3 6.4-.9-.2-1.2.1-2.2.6-2.2 2 0 7.2 2.3 7.2 3.2 0 .5.4.7.9.3.5-.3 1.2-.1 1.5.4.8 1.3 9.6 2.1 13.6 1.3 3.1-.7 3.6-1.2 4.1-4.5.5-3.4.3-3.8-2.4-5.2-1.7-.8-3.8-1.5-4.9-1.5-1.7 0-1.8.1-.2 2.5.9 1.4 1.4 2.8 1.2 3.1-.3.3-2.7-.3-5.4-1.3-3.5-1.3-6.3-1.7-9.9-1.2-6.3.7-7.5.3-7.5-2.7 0-3.4-1.5-3-3.9 1.1zM2.2 528.1c.2.7 1 1.5 1.7 1.7.8.3 1.2-.1.9-.9-.2-.7-1-1.5-1.7-1.7-.8-.3-1.2.1-.9.9zM547.5 529c.4.6 1.1.8 1.6.5 1.4-.9 1.1-1.5-.7-1.5-.8 0-1.2.5-.9 1zM574.2 531.2c.3.7 1.3 1.5 2.2 1.6 1.2.3 1.7-.1 1.4-1-.3-.7-1.3-1.5-2.2-1.6-1.2-.3-1.7.1-1.4 1zM598.1 541.4c-1.1 1.3-1.1 2-.3 2.8 1.5 1.5 2.4.5 2-2.3-.3-2.1-.4-2.1-1.7-.5zM571.5 545.1c-1 1.5.3 2.5 1.6 1.2.7-.7.7-1.3.1-1.7-.6-.3-1.4-.1-1.7.5zM586.9 546.5c-2.6.6-5.4 1.9-6.4 2.8-.9.9-2.1 1.7-2.6 1.7s-.9 1.2-.9 2.6c0 3.5-1.6 6.3-5.9 10.3-2.5 2.3-3.2 3.5-2.2 3.9.7.2 1.7-.1 2.1-.9.5-.7 2.2-2 3.7-2.8 6.9-3.7 10.2-6.4 11.3-9 .6-1.6 2.3-3.4 3.6-4.2 3.2-1.6 4.9-4.5 3.1-5.2-.6-.2-3.3.1-5.8.8zM455.2 552.1c.5 1.7 4.8 2.5 4.8 1 0-.6-.4-1.1-.9-1.1s-1.7-.3-2.7-.7c-1.2-.4-1.5-.2-1.2.8zM1.3 552.6c-.8.4-1.2 5-1.2 15.5C0 580 .2 583 1.2 582.3c1.9-1.2 8.1-3.3 9.8-3.3.8 0 2.8-.7 4.4-1.5 1.5-.8 3.6-1.5 4.6-1.5 2.6 0 4.3-2.6 4.9-7.3.5-3.4 1.2-4.4 3.6-5.6 1.7-.8 3.2-1.7 3.5-2 .3-.4 1.7-1.2 3.3-1.8 3.4-1.6 3.4-2.6.1-4.8-1.8-1.2-4.1-1.6-7.7-1.4-2.9.2-5.8 0-6.4-.4-1-.6-1.3 0-1.3 2.2 0 2.8-.3 3.1-3 3.1-2.3 0-3-.4-3-2 0-1.7-.7-2-3.9-2-2.2 0-4.3-.5-4.6-1-.6-1-2.2-1.2-4.2-.4z"/><path d="M568 552.8c0 1.6 3.2 5.2 4.6 5.2 2.4 0 1.6-3.6-1.1-4.8-3.1-1.4-3.5-1.5-3.5-.4zM41 555c0 .5.5 1 1 1 .6 0 1-.5 1-1 0-.6-.4-1-1-1-.5 0-1 .4-1 1zM472 557.9c0 1.6 2.6 3.1 5.2 3.1 2.5 0 3.3-.8 2.6-2.6-.4-.9-7.8-1.4-7.8-.5zM479.5 570c.3.5 1.3 1 2.1 1s1.2-.5.9-1c-.3-.6-1.3-1-2.1-1s-1.2.4-.9 1zM489.5 576c.3.5 1.1 1 1.6 1 .6 0 .7-.5.4-1-.3-.6-1.1-1-1.6-1-.6 0-.7.4-.4 1zM475 585c0 .5.5 1 1 1 .6 0 1-.5 1-1 0-.6-.4-1-1-1-.5 0-1 .4-1 1zM565.7 594.8c-1 1.1-1.4 2.3-.9 2.6 1.2.7 3.5-1.9 3-3.4-.2-.7-1.1-.3-2.1.8z"/></svg>